STARTFONT 2.1
COMMENT
COMMENT Converted from OpenType font "SairaExtraCondensed-Regular.ttf" by "otf2bdf 3.0".
COMMENT
FONT -FreeType-Saira ExtraCondensed-Medium-R-Normal--27-270-72-72-P-84-ISO10646-1
SIZE 27 72 72
FONTBOUNDINGBOX 32 39 -10 -9
STARTPROPERTIES 19
FOUNDRY "FreeType"
FAMILY_NAME "Saira ExtraCondensed"
WEIGHT_NAME "Medium"
SLANT "R"
SETWIDTH_NAME "Normal"
ADD_STYLE_NAME ""
PIXEL_SIZE 27
POINT_SIZE 270
RESOLUTION_X 72
RESOLUTION_Y 72
SPACING "P"
AVERAGE_WIDTH 84
CHARSET_REGISTRY "ISO10646"
CHARSET_ENCODING "1"
FONT_ASCENT 30
FONT_DESCENT 11
COPYRIGHT "Copyright 2016 The Saira Project Authors (omnibus.type@gmail.com), with reserved font name "Saira"."
_OTF_FONTFILE "SairaExtraCondensed-Regular.ttf"
_OTF_PSNAME "SairaExtraCondensed-Regular"
ENDPROPERTIES
CHARS 608
STARTCHAR 0000
ENCODING 0
SWIDTH 0 0
DWIDTH 0 0
BBX 0 0 0 0
BITMAP
ENDCHAR
STARTCHAR 000D
ENCODING 13
SWIDTH 148 0
DWIDTH 4 0
BBX 0 0 0 0
BITMAP
ENDCHAR
STARTCHAR 0020
ENCODING 32
SWIDTH 148 0
DWIDTH 4 0
BBX 0 0 0 0
BITMAP
ENDCHAR
STARTCHAR 0021
ENCODING 33
SWIDTH 185 0
DWIDTH 5 0
BBX 3 19 1 0
BITMAP
E0
E0
E0
E0
E0
E0
40
40
40
40
40
40
40
40
00
00
00
E0
E0
ENDCHAR
STARTCHAR 0022
ENCODING 34
SWIDTH 259 0
DWIDTH 7 0
BBX 5 7 1 12
BITMAP
D8
D8
D8
D8
D8
C8
C8
ENDCHAR
STARTCHAR 0023
ENCODING 35
SWIDTH 444 0
DWIDTH 12 0
BBX 10 19 1 0
BITMAP
1980
1180
1100
1100
1100
3100
7FC0
3300
3300
2300
2300
2200
FF80
FF80
6200
6600
6600
4600
4600
ENDCHAR
STARTCHAR 0024
ENCODING 36
SWIDTH 370 0
DWIDTH 10 0
BBX 8 19 1 0
BITMAP
18
18
1C
7E
E0
C0
C0
C0
E0
7E
0E
02
03
02
06
FE
FC
18
18
ENDCHAR
STARTCHAR 0025
ENCODING 37
SWIDTH 555 0
DWIDTH 15 0
BBX 13 19 1 0
BITMAP
7820
7860
C840
C8C0
C880
C880
C980
C900
CB00
7A70
22D8
0488
0488
0C88
0888
0888
1098
10F8
3070
ENDCHAR
STARTCHAR 0026
ENCODING 38
SWIDTH 444 0
DWIDTH 12 0
BBX 10 19 1 0
BITMAP
3F80
7F80
C000
C000
C000
C000
C000
4000
79C0
39C0
6180
C180
C180
C180
C180
C180
C180
7F80
3F80
ENDCHAR
STARTCHAR 0027
ENCODING 39
SWIDTH 148 0
DWIDTH 4 0
BBX 2 7 1 12
BITMAP
C0
C0
C0
C0
C0
C0
C0
ENDCHAR
STARTCHAR 0028
ENCODING 40
SWIDTH 222 0
DWIDTH 6 0
BBX 5 24 1 -4
BITMAP
18
30
20
60
60
60
40
40
C0
C0
C0
C0
C0
C0
C0
40
40
40
60
60
60
20
30
18
ENDCHAR
STARTCHAR 0029
ENCODING 41
SWIDTH 222 0
DWIDTH 6 0
BBX 4 24 0 -4
BITMAP
C0
60
20
30
30
30
30
10
10
10
10
10
10
10
10
10
10
30
30
30
30
20
60
C0
ENDCHAR
STARTCHAR 002A
ENCODING 42
SWIDTH 370 0
DWIDTH 10 0
BBX 8 8 1 11
BITMAP
08
89
EB
3C
3C
EB
89
08
ENDCHAR
STARTCHAR 002B
ENCODING 43
SWIDTH 444 0
DWIDTH 12 0
BBX 9 9 2 2
BITMAP
1800
1800
1800
FF80
FF80
1800
1800
1800
1800
ENDCHAR
STARTCHAR 002C
ENCODING 44
SWIDTH 185 0
DWIDTH 5 0
BBX 2 6 1 -4
BITMAP
C0
C0
40
40
C0
80
ENDCHAR
STARTCHAR 002D
ENCODING 45
SWIDTH 296 0
DWIDTH 8 0
BBX 5 2 1 7
BITMAP
F8
F8
ENDCHAR
STARTCHAR 002E
ENCODING 46
SWIDTH 185 0
DWIDTH 5 0
BBX 2 2 1 0
BITMAP
C0
C0
ENDCHAR
STARTCHAR 002F
ENCODING 47
SWIDTH 259 0
DWIDTH 7 0
BBX 5 21 1 -1
BITMAP
18
18
18
18
10
10
30
30
30
30
20
20
60
60
60
40
40
C0
C0
C0
C0
ENDCHAR
STARTCHAR 0030
ENCODING 48
SWIDTH 407 0
DWIDTH 11 0
BBX 9 19 1 0
BITMAP
3E00
7F00
4300
C300
C100
C100
C180
C180
C180
C180
C180
C180
C180
C100
C100
C300
4300
7F00
3E00
ENDCHAR
STARTCHAR 0031
ENCODING 49
SWIDTH 222 0
DWIDTH 6 0
BBX 4 19 1 0
BITMAP
70
F0
F0
B0
30
30
30
30
30
30
30
30
30
30
30
30
30
30
30
ENDCHAR
STARTCHAR 0032
ENCODING 50
SWIDTH 370 0
DWIDTH 10 0
BBX 8 19 1 0
BITMAP
FC
FE
02
03
03
03
03
06
0E
1C
38
70
C0
C0
C0
C0
C0
FF
FF
ENDCHAR
STARTCHAR 0033
ENCODING 51
SWIDTH 333 0
DWIDTH 9 0
BBX 8 19 0 0
BITMAP
7C
7E
03
03
03
03
03
03
3E
3E
03
03
03
03
03
03
03
FE
FC
ENDCHAR
STARTCHAR 0034
ENCODING 52
SWIDTH 370 0
DWIDTH 10 0
BBX 9 19 1 0
BITMAP
1800
1800
1000
3000
3000
3000
6200
6200
6600
4600
C600
C600
C600
FF80
FF80
0600
0600
0600
0600
ENDCHAR
STARTCHAR 0035
ENCODING 53
SWIDTH 370 0
DWIDTH 10 0
BBX 8 19 1 0
BITMAP
FE
FE
C0
C0
C0
C0
C0
C0
FC
FE
03
03
03
03
03
03
03
FE
FC
ENDCHAR
STARTCHAR 0036
ENCODING 54
SWIDTH 370 0
DWIDTH 10 0
BBX 9 19 1 0
BITMAP
3F00
7F00
6000
C000
C000
C000
C000
C000
DE00
FF00
C300
C100
C180
C180
C180
C100
4300
7F00
3E00
ENDCHAR
STARTCHAR 0037
ENCODING 55
SWIDTH 333 0
DWIDTH 9 0
BBX 7 19 1 0
BITMAP
FE
FE
06
06
06
0C
0C
0C
0C
18
18
18
10
30
30
30
60
60
60
ENDCHAR
STARTCHAR 0038
ENCODING 56
SWIDTH 407 0
DWIDTH 11 0
BBX 9 19 1 0
BITMAP
3E00
7F00
C300
C180
C180
C180
C100
C300
7F00
7E00
E300
C180
C180
C180
C180
C180
C300
7F00
3E00
ENDCHAR
STARTCHAR 0039
ENCODING 57
SWIDTH 370 0
DWIDTH 10 0
BBX 8 19 1 0
BITMAP
7C
7E
C3
C3
C3
C3
C3
C3
C3
FF
7F
03
03
03
03
03
03
FE
FC
ENDCHAR
STARTCHAR 003A
ENCODING 58
SWIDTH 185 0
DWIDTH 5 0
BBX 2 14 1 0
BITMAP
C0
C0
00
00
00
00
00
00
00
00
00
00
C0
C0
ENDCHAR
STARTCHAR 003B
ENCODING 59
SWIDTH 185 0
DWIDTH 5 0
BBX 2 18 1 -4
BITMAP
C0
C0
00
00
00
00
00
00
00
00
00
00
C0
C0
40
40
C0
80
ENDCHAR
STARTCHAR 003C
ENCODING 60
SWIDTH 444 0
DWIDTH 12 0
BBX 9 10 2 2
BITMAP
0080
0380
0F00
7800
E000
C000
7800
1E00
0780
0080
ENDCHAR
STARTCHAR 003D
ENCODING 61
SWIDTH 444 0
DWIDTH 12 0
BBX 9 6 2 4
BITMAP
FF80
FF80
0000
0000
FF80
FF80
ENDCHAR
STARTCHAR 003E
ENCODING 62
SWIDTH 444 0
DWIDTH 12 0
BBX 9 10 2 2
BITMAP
8000
C000
7800
1E00
0780
0380
0F00
7800
E000
8000
ENDCHAR
STARTCHAR 003F
ENCODING 63
SWIDTH 296 0
DWIDTH 8 0
BBX 7 19 0 0
BITMAP
FC
FE
06
06
06
06
06
06
1C
38
30
30
30
30
00
00
00
30
30
ENDCHAR
STARTCHAR 0040
ENCODING 64
SWIDTH 555 0
DWIDTH 15 0
BBX 13 23 1 -4
BITMAP
1FE0
7FF0
4018
4018
4008
4F88
CF88
C0C8
C0C8
C0C8
C7C8
CFC8
C8C8
C8C8
C8C8
C8C8
4FF8
42F0
4000
4000
6000
3FC0
03C0
ENDCHAR
STARTCHAR 0041
ENCODING 65
SWIDTH 407 0
DWIDTH 11 0
BBX 11 19 0 0
BITMAP
0E00
0E00
0E00
1A00
1B00
1B00
1B00
1B00
3100
3180
3180
3180
3F80
7F80
60C0
60C0
60C0
60C0
C060
ENDCHAR
STARTCHAR 0042
ENCODING 66
SWIDTH 407 0
DWIDTH 11 0
BBX 8 19 2 0
BITMAP
FC
FE
86
83
83
83
83
82
86
FC
FE
82
83
83
83
83
83
FE
FC
ENDCHAR
STARTCHAR 0043
ENCODING 67
SWIDTH 333 0
DWIDTH 9 0
BBX 7 19 1 0
BITMAP
3E
7E
60
C0
C0
C0
C0
C0
C0
C0
C0
C0
C0
C0
C0
C0
60
7E
3E
ENDCHAR
STARTCHAR 0044
ENCODING 68
SWIDTH 407 0
DWIDTH 11 0
BBX 8 19 2 0
BITMAP
FC
FE
86
83
83
83
83
83
83
83
83
83
83
83
83
83
86
FE
FC
ENDCHAR
STARTCHAR 0045
ENCODING 69
SWIDTH 333 0
DWIDTH 9 0
BBX 7 19 2 0
BITMAP
FE
FE
80
80
80
80
80
80
80
FC
FC
80
80
80
80
80
80
FE
FE
ENDCHAR
STARTCHAR 0046
ENCODING 70
SWIDTH 333 0
DWIDTH 9 0
BBX 6 19 2 0
BITMAP
FC
FC
80
80
80
80
80
80
80
FC
FC
80
80
80
80
80
80
80
80
ENDCHAR
STARTCHAR 0047
ENCODING 71
SWIDTH 407 0
DWIDTH 11 0
BBX 9 19 1 0
BITMAP
3F80
7F80
6000
4000
C000
C000
C000
C000
C000
C780
C780
C180
C180
C180
C180
4180
6180
7F80
3F80
ENDCHAR
STARTCHAR 0048
ENCODING 72
SWIDTH 444 0
DWIDTH 12 0
BBX 8 19 2 0
BITMAP
83
83
83
83
83
83
83
83
83
FF
FF
83
83
83
83
83
83
83
83
ENDCHAR
STARTCHAR 0049
ENCODING 73
SWIDTH 185 0
DWIDTH 5 0
BBX 1 19 2 0
BITMAP
80
80
80
80
80
80
80
80
80
80
80
80
80
80
80
80
80
80
80
ENDCHAR
STARTCHAR 004A
ENCODING 74
SWIDTH 185 0
DWIDTH 5 0
BBX 4 19 0 0
BITMAP
30
30
30
30
30
30
30
30
30
30
30
30
30
30
30
30
30
F0
E0
ENDCHAR
STARTCHAR 004B
ENCODING 75
SWIDTH 407 0
DWIDTH 11 0
BBX 8 19 2 0
BITMAP
83
83
86
86
86
8C
8C
88
98
F8
F8
98
8C
8C
86
86
86
83
83
ENDCHAR
STARTCHAR 004C
ENCODING 76
SWIDTH 296 0
DWIDTH 8 0
BBX 6 19 2 0
BITMAP
80
80
80
80
80
80
80
80
80
80
80
80
80
80
80
80
80
FC
FC
ENDCHAR
STARTCHAR 004D
ENCODING 77
SWIDTH 555 0
DWIDTH 15 0
BBX 12 19 2 0
BITMAP
C070
E070
E0F0
E0F0
A0F0
B0B0
B0B0
B1B0
B1B0
91B0
9930
9930
9B30
9B30
8B30
8E30
8E30
8E30
8630
ENDCHAR
STARTCHAR 004E
ENCODING 78
SWIDTH 444 0
DWIDTH 12 0
BBX 8 19 2 0
BITMAP
C3
C3
C3
E3
E3
A3
B3
B3
93
9B
9B
8B
8F
8F
87
87
87
83
83
ENDCHAR
STARTCHAR 004F
ENCODING 79
SWIDTH 407 0
DWIDTH 11 0
BBX 9 19 1 0
BITMAP
3E00
7F00
6180
C180
C180
C180
C180
C180
C180
C180
C180
C180
C180
C180
C180
C180
6180
7F00
3F00
ENDCHAR
STARTCHAR 0050
ENCODING 80
SWIDTH 370 0
DWIDTH 10 0
BBX 8 19 2 0
BITMAP
FC
FE
86
83
83
83
83
83
83
86
FE
FC
80
80
80
80
80
80
80
ENDCHAR
STARTCHAR 0051
ENCODING 81
SWIDTH 407 0
DWIDTH 11 0
BBX 10 22 1 -3
BITMAP
3E00
7F00
6180
C180
C180
C180
C180
C180
C180
C180
C180
C180
C180
C180
C180
C180
6180
7F00
3F00
0180
0180
00C0
ENDCHAR
STARTCHAR 0052
ENCODING 82
SWIDTH 407 0
DWIDTH 11 0
BBX 8 19 2 0
BITMAP
FC
FE
83
83
83
83
83
83
83
86
FE
FC
84
86
86
86
83
83
83
ENDCHAR
STARTCHAR 0053
ENCODING 83
SWIDTH 370 0
DWIDTH 10 0
BBX 8 19 1 0
BITMAP
3E
7E
C0
C0
C0
C0
C0
C0
F8
7E
07
03
03
03
03
03
03
FE
FC
ENDCHAR
STARTCHAR 0054
ENCODING 84
SWIDTH 333 0
DWIDTH 9 0
BBX 9 19 0 0
BITMAP
FF80
FF80
0800
0800
0800
0800
0800
0800
0800
0800
0800
0800
0800
0800
0800
0800
0800
0800
0800
ENDCHAR
STARTCHAR 0055
ENCODING 85
SWIDTH 407 0
DWIDTH 11 0
BBX 9 19 1 0
BITMAP
C180
C180
C180
C180
C180
C180
C180
C180
C180
C180
C180
C180
C180
C180
C180
4180
6180
7F00
3E00
ENDCHAR
STARTCHAR 0056
ENCODING 86
SWIDTH 370 0
DWIDTH 10 0
BBX 10 19 0 0
BITMAP
C0C0
C0C0
60C0
6180
6180
6180
6180
2180
3100
3300
3300
3300
1300
1200
1A00
1E00
1E00
1E00
0C00
ENDCHAR
STARTCHAR 0057
ENCODING 87
SWIDTH 592 0
DWIDTH 16 0
BBX 15 19 0 0
BITMAP
C186
C386
4386
6386
63C6
62C6
62C4
62C4
664C
264C
266C
366C
346C
3468
3428
3C28
1C38
1C38
1838
ENDCHAR
STARTCHAR 0058
ENCODING 88
SWIDTH 407 0
DWIDTH 11 0
BBX 10 19 0 0
BITMAP
E0C0
60C0
6180
3180
3180
1300
1B00
1A00
0E00
0E00
0E00
1A00
1B00
3300
3180
3180
6180
60C0
C0C0
ENDCHAR
STARTCHAR 0059
ENCODING 89
SWIDTH 370 0
DWIDTH 10 0
BBX 10 19 0 0
BITMAP
C0C0
C180
6180
6100
6300
3300
3200
3600
1600
1C00
1C00
0C00
0C00
0C00
0C00
0C00
0C00
0C00
0C00
ENDCHAR
STARTCHAR 005A
ENCODING 90
SWIDTH 333 0
DWIDTH 9 0
BBX 8 19 1 0
BITMAP
FF
FF
06
06
0C
0C
0C
18
18
18
30
30
60
60
60
C0
C0
FF
FF
ENDCHAR
STARTCHAR 005B
ENCODING 91
SWIDTH 222 0
DWIDTH 6 0
BBX 3 25 2 -5
BITMAP
E0
E0
80
80
80
80
80
80
80
80
80
80
80
80
80
80
80
80
80
80
80
80
80
E0
E0
ENDCHAR
STARTCHAR 005C
ENCODING 92
SWIDTH 259 0
DWIDTH 7 0
BBX 5 21 1 -1
BITMAP
80
C0
C0
C0
40
40
60
60
60
60
20
20
30
30
30
10
10
18
18
18
18
ENDCHAR
STARTCHAR 005D
ENCODING 93
SWIDTH 222 0
DWIDTH 6 0
BBX 3 25 1 -5
BITMAP
E0
E0
20
20
20
20
20
20
20
20
20
20
20
20
20
20
20
20
20
20
20
20
20
E0
E0
ENDCHAR
STARTCHAR 005E
ENCODING 94
SWIDTH 407 0
DWIDTH 11 0
BBX 8 7 1 13
BITMAP
18
1C
34
26
62
63
C3
ENDCHAR
STARTCHAR 005F
ENCODING 95
SWIDTH 296 0
DWIDTH 8 0
BBX 8 2 0 -5
BITMAP
FF
FF
ENDCHAR
STARTCHAR 0060
ENCODING 96
SWIDTH 111 0
DWIDTH 3 0
BBX 3 4 0 16
BITMAP
C0
40
40
60
ENDCHAR
STARTCHAR 0061
ENCODING 97
SWIDTH 370 0
DWIDTH 10 0
BBX 7 14 1 0
BITMAP
FC
FE
06
02
02
02
7E
FE
C2
82
82
C6
FA
7A
ENDCHAR
STARTCHAR 0062
ENCODING 98
SWIDTH 370 0
DWIDTH 10 0
BBX 8 20 1 0
BITMAP
C0
C0
C0
C0
C0
C0
DE
FF
E3
C3
C1
C1
C1
C1
C1
C1
C3
E3
FF
DE
ENDCHAR
STARTCHAR 0063
ENCODING 99
SWIDTH 296 0
DWIDTH 8 0
BBX 6 14 1 0
BITMAP
3C
7C
C0
C0
C0
C0
C0
C0
C0
C0
C0
C0
7C
3C
ENDCHAR
STARTCHAR 0064
ENCODING 100
SWIDTH 370 0
DWIDTH 10 0
BBX 8 20 1 0
BITMAP
03
03
03
03
03
03
7B
7F
C3
C3
C3
C3
C3
C3
C3
C3
C3
C3
7F
7B
ENDCHAR
STARTCHAR 0065
ENCODING 101
SWIDTH 370 0
DWIDTH 10 0
BBX 8 14 1 0
BITMAP
3C
7E
C3
C3
C3
C3
FF
FF
C0
C0
C0
C0
7F
3F
ENDCHAR
STARTCHAR 0066
ENCODING 102
SWIDTH 222 0
DWIDTH 6 0
BBX 6 20 0 0
BITMAP
1C
3C
30
30
30
30
FC
FC
30
30
30
30
30
30
30
30
30
30
30
30
ENDCHAR
STARTCHAR 0067
ENCODING 103
SWIDTH 370 0
DWIDTH 10 0
BBX 8 19 1 -5
BITMAP
7B
7F
C3
C3
C3
C3
C3
C3
C3
C3
C3
C3
7F
7B
03
03
03
FE
FC
ENDCHAR
STARTCHAR 0068
ENCODING 104
SWIDTH 370 0
DWIDTH 10 0
BBX 8 20 1 0
BITMAP
C0
C0
C0
C0
C0
C0
DE
FF
E3
C3
C3
C3
C3
C3
C3
C3
C3
C3
C3
C3
ENDCHAR
STARTCHAR 0069
ENCODING 105
SWIDTH 185 0
DWIDTH 5 0
BBX 2 20 1 0
BITMAP
C0
C0
00
00
00
00
C0
C0
C0
C0
C0
C0
C0
C0
C0
C0
C0
C0
C0
C0
ENDCHAR
STARTCHAR 006A
ENCODING 106
SWIDTH 185 0
DWIDTH 5 0
BBX 3 25 0 -5
BITMAP
60
60
00
00
00
00
60
60
60
60
60
60
60
60
60
60
60
60
60
60
60
60
60
E0
C0
ENDCHAR
STARTCHAR 006B
ENCODING 107
SWIDTH 333 0
DWIDTH 9 0
BBX 8 20 1 0
BITMAP
C0
C0
C0
C0
C0
C0
C3
C6
C6
C4
CC
CC
F8
F8
CC
CC
C4
C6
C6
C3
ENDCHAR
STARTCHAR 006C
ENCODING 108
SWIDTH 185 0
DWIDTH 5 0
BBX 2 20 1 0
BITMAP
C0
C0
C0
C0
C0
C0
C0
C0
C0
C0
C0
C0
C0
C0
C0
C0
C0
C0
C0
C0
ENDCHAR
STARTCHAR 006D
ENCODING 109
SWIDTH 592 0
DWIDTH 16 0
BBX 14 14 1 0
BITMAP
DE78
FFF8
E30C
C30C
C30C
C30C
C30C
C30C
C30C
C30C
C30C
C30C
C30C
C30C
ENDCHAR
STARTCHAR 006E
ENCODING 110
SWIDTH 370 0
DWIDTH 10 0
BBX 8 14 1 0
BITMAP
DE
FF
E3
C3
C3
C3
C3
C3
C3
C3
C3
C3
C3
C3
ENDCHAR
STARTCHAR 006F
ENCODING 111
SWIDTH 370 0
DWIDTH 10 0
BBX 8 14 1 0
BITMAP
3E
7F
C3
C3
C3
C3
C3
C3
C3
C3
C3
C3
7F
3E
ENDCHAR
STARTCHAR 0070
ENCODING 112
SWIDTH 370 0
DWIDTH 10 0
BBX 8 19 1 -5
BITMAP
DE
FF
E3
C3
C1
C1
C1
C1
C1
C1
C3
E3
FF
DE
C0
C0
C0
C0
C0
ENDCHAR
STARTCHAR 0071
ENCODING 113
SWIDTH 370 0
DWIDTH 10 0
BBX 8 19 1 -5
BITMAP
7B
7F
C3
C3
C3
C3
C3
C3
C3
C3
C3
C3
7F
7B
03
03
03
03
03
ENDCHAR
STARTCHAR 0072
ENCODING 114
SWIDTH 259 0
DWIDTH 7 0
BBX 5 14 1 0
BITMAP
D8
D8
E0
E0
C0
C0
C0
C0
C0
C0
C0
C0
C0
C0
ENDCHAR
STARTCHAR 0073
ENCODING 115
SWIDTH 333 0
DWIDTH 9 0
BBX 7 14 1 0
BITMAP
7C
FC
C0
C0
C0
C0
FC
3C
06
06
06
06
FC
F8
ENDCHAR
STARTCHAR 0074
ENCODING 116
SWIDTH 222 0
DWIDTH 6 0
BBX 6 18 0 0
BITMAP
30
30
30
30
FC
FC
30
30
30
30
30
30
30
30
30
30
30
30
ENDCHAR
STARTCHAR 0075
ENCODING 117
SWIDTH 370 0
DWIDTH 10 0
BBX 8 14 1 0
BITMAP
C3
C3
C3
C3
C3
C3
C3
C3
C3
C3
C3
C3
7F
7B
ENDCHAR
STARTCHAR 0076
ENCODING 118
SWIDTH 333 0
DWIDTH 9 0
BBX 9 14 0 0
BITMAP
C180
6180
6100
6300
6300
2300
3200
3200
3600
1600
1600
1C00
1C00
1C00
ENDCHAR
STARTCHAR 0077
ENCODING 119
SWIDTH 518 0
DWIDTH 14 0
BBX 14 14 0 0
BITMAP
C30C
4308
6308
6398
6798
6798
2490
2490
3490
34F0
3CF0
1C70
1860
1860
ENDCHAR
STARTCHAR 0078
ENCODING 120
SWIDTH 333 0
DWIDTH 9 0
BBX 9 14 0 0
BITMAP
E180
6300
2300
3200
3600
1E00
1C00
1C00
1E00
3600
3300
6300
6100
C180
ENDCHAR
STARTCHAR 0079
ENCODING 121
SWIDTH 370 0
DWIDTH 10 0
BBX 8 19 1 -5
BITMAP
C3
C3
C3
C3
C3
C3
C3
C3
C3
C3
C3
C3
7F
7B
03
03
03
7E
7C
ENDCHAR
STARTCHAR 007A
ENCODING 122
SWIDTH 296 0
DWIDTH 8 0
BBX 7 14 1 0
BITMAP
FE
FE
0C
0C
18
18
30
30
20
60
60
C0
FE
FE
ENDCHAR
STARTCHAR 007B
ENCODING 123
SWIDTH 222 0
DWIDTH 6 0
BBX 5 24 1 -4
BITMAP
18
30
20
60
60
60
60
60
60
60
60
C0
C0
60
60
60
60
60
60
60
60
20
30
18
ENDCHAR
STARTCHAR 007C
ENCODING 124
SWIDTH 185 0
DWIDTH 5 0
BBX 2 24 2 -4
BITMAP
C0
C0
C0
C0
C0
C0
C0
C0
C0
C0
C0
C0
C0
C0
C0
C0
C0
C0
C0
C0
C0
C0
C0
C0
ENDCHAR
STARTCHAR 007D
ENCODING 125
SWIDTH 222 0
DWIDTH 6 0
BBX 6 24 0 -4
BITMAP
C0
60
30
30
30
30
30
30
30
30
10
1C
0C
18
30
30
30
30
30
30
30
30
60
C0
ENDCHAR
STARTCHAR 007E
ENCODING 126
SWIDTH 407 0
DWIDTH 11 0
BBX 8 4 2 6
BITMAP
41
FB
9E
80
ENDCHAR
STARTCHAR 00A0
ENCODING 160
SWIDTH 148 0
DWIDTH 4 0
BBX 0 0 0 0
BITMAP
ENDCHAR
STARTCHAR 00A1
ENCODING 161
SWIDTH 185 0
DWIDTH 5 0
BBX 3 19 1 -5
BITMAP
E0
E0
00
00
00
40
40
40
40
40
40
40
40
C0
E0
E0
E0
E0
E0
ENDCHAR
STARTCHAR 00A2
ENCODING 162
SWIDTH 333 0
DWIDTH 9 0
BBX 7 19 1 0
BITMAP
18
18
3E
7E
40
C0
C0
C0
C0
C0
C0
C0
C0
C0
60
7E
3C
18
18
ENDCHAR
STARTCHAR 00A3
ENCODING 163
SWIDTH 370 0
DWIDTH 10 0
BBX 8 19 1 0
BITMAP
1F
3F
30
60
60
60
60
60
FE
FE
60
60
60
60
60
60
60
FF
FF
ENDCHAR
STARTCHAR 00A4
ENCODING 164
SWIDTH 518 0
DWIDTH 14 0
BBX 12 19 1 0
BITMAP
4020
C070
6460
3FC0
3180
30C0
30C0
30C0
30C0
30C0
30C0
30C0
30C0
30C0
30C0
3F80
7FC0
E070
4020
ENDCHAR
STARTCHAR 00A5
ENCODING 165
SWIDTH 407 0
DWIDTH 11 0
BBX 9 19 1 0
BITMAP
C180
C180
4180
6100
6300
6300
3200
F780
3600
1C00
FF80
FF80
0C00
0C00
0C00
0C00
0C00
0C00
0C00
ENDCHAR
STARTCHAR 00A6
ENCODING 166
SWIDTH 185 0
DWIDTH 5 0
BBX 2 25 2 -5
BITMAP
C0
C0
C0
C0
C0
C0
C0
C0
C0
C0
00
00
00
00
00
C0
C0
C0
C0
C0
C0
C0
C0
C0
C0
ENDCHAR
STARTCHAR 00A7
ENCODING 167
SWIDTH 407 0
DWIDTH 11 0
BBX 9 23 1 -4
BITMAP
1F00
3F00
6000
6000
6000
6000
3800
3E00
6F80
C180
C180
C180
C180
E180
7980
1F00
0700
0300
0300
0300
0300
7F00
7E00
ENDCHAR
STARTCHAR 00A8
ENCODING 168
SWIDTH 259 0
DWIDTH 7 0
BBX 6 2 1 18
BITMAP
8C
8C
ENDCHAR
STARTCHAR 00A9
ENCODING 169
SWIDTH 481 0
DWIDTH 13 0
BBX 10 20 2 0
BITMAP
1C00
7F80
C080
8080
8040
9C40
9C40
9040
9040
9040
9040
9040
9040
9040
9C40
9C40
80C0
8080
FF80
3F00
ENDCHAR
STARTCHAR 00AA
ENCODING 170
SWIDTH 296 0
DWIDTH 8 0
BBX 6 11 1 8
BITMAP
F0
F8
08
08
0C
FC
8C
8C
8C
FC
40
ENDCHAR
STARTCHAR 00AB
ENCODING 171
SWIDTH 333 0
DWIDTH 9 0
BBX 6 11 1 3
BITMAP
24
6C
4C
48
D8
D8
D8
C8
4C
6C
24
ENDCHAR
STARTCHAR 00AC
ENCODING 172
SWIDTH 444 0
DWIDTH 12 0
BBX 9 6 2 2
BITMAP
FF80
FF80
0180
0180
0180
0180
ENDCHAR
STARTCHAR 00AD
ENCODING 173
SWIDTH 296 0
DWIDTH 8 0
BBX 5 2 1 7
BITMAP
F8
F8
ENDCHAR
STARTCHAR 00AE
ENCODING 174
SWIDTH 481 0
DWIDTH 13 0
BBX 10 20 2 0
BITMAP
1C00
7F80
C080
8080
8040
9840
9E40
9240
9240
9240
9E40
9C40
9440
9640
9240
8040
80C0
8080
FF80
3F00
ENDCHAR
STARTCHAR 00AF
ENCODING 175
SWIDTH 296 0
DWIDTH 8 0
BBX 5 2 1 18
BITMAP
F8
F8
ENDCHAR
STARTCHAR 00B0
ENCODING 176
SWIDTH 296 0
DWIDTH 8 0
BBX 5 8 1 11
BITMAP
78
F8
C8
C8
C8
C8
F8
78
ENDCHAR
STARTCHAR 00B1
ENCODING 177
SWIDTH 444 0
DWIDTH 12 0
BBX 9 13 2 1
BITMAP
1800
1800
1800
FF80
FF80
1800
1800
1800
1800
0000
0000
FF80
FF80
ENDCHAR
STARTCHAR 00B2
ENCODING 178
SWIDTH 259 0
DWIDTH 7 0
BBX 5 11 1 8
BITMAP
F0
F8
18
18
10
30
40
C0
C0
F8
F8
ENDCHAR
STARTCHAR 00B3
ENCODING 179
SWIDTH 259 0
DWIDTH 7 0
BBX 5 12 1 7
BITMAP
F0
F0
18
18
10
70
70
18
18
18
F0
20
ENDCHAR
STARTCHAR 00B4
ENCODING 180
SWIDTH 111 0
DWIDTH 3 0
BBX 3 4 0 16
BITMAP
60
40
C0
C0
ENDCHAR
STARTCHAR 00B5
ENCODING 181
SWIDTH 407 0
DWIDTH 11 0
BBX 8 19 1 -5
BITMAP
C3
C3
C3
C3
C3
C3
C3
C3
C3
C3
C3
C3
F5
FD
C0
C0
C0
C0
C0
ENDCHAR
STARTCHAR 00B6
ENCODING 182
SWIDTH 370 0
DWIDTH 10 0
BBX 7 23 1 -4
BITMAP
7A
FA
FA
FA
FA
FA
FA
FA
FA
FA
FA
FA
7A
1A
1A
1A
1A
1A
1A
1A
1A
1A
1A
ENDCHAR
STARTCHAR 00B7
ENCODING 183
SWIDTH 185 0
DWIDTH 5 0
BBX 2 2 1 7
BITMAP
C0
C0
ENDCHAR
STARTCHAR 00B8
ENCODING 184
SWIDTH 148 0
DWIDTH 4 0
BBX 3 5 0 -5
BITMAP
20
60
60
40
C0
ENDCHAR
STARTCHAR 00B9
ENCODING 185
SWIDTH 185 0
DWIDTH 5 0
BBX 3 10 1 9
BITMAP
60
E0
60
60
60
60
60
60
60
60
ENDCHAR
STARTCHAR 00BA
ENCODING 186
SWIDTH 296 0
DWIDTH 8 0
BBX 6 11 1 8
BITMAP
30
FC
CC
C4
C4
C4
C4
C4
CC
FC
10
ENDCHAR
STARTCHAR 00BB
ENCODING 187
SWIDTH 333 0
DWIDTH 9 0
BBX 7 11 1 3
BITMAP
D8
48
6C
64
24
36
24
64
6C
48
D8
ENDCHAR
STARTCHAR 00BC
ENCODING 188
SWIDTH 481 0
DWIDTH 13 0
BBX 11 19 1 0
BITMAP
6080
E080
6100
6100
6300
6200
6200
6400
6580
6D80
0900
0900
1140
1340
3240
2240
23E0
4040
4040
ENDCHAR
STARTCHAR 00BD
ENCODING 189
SWIDTH 518 0
DWIDTH 14 0
BBX 12 19 1 0
BITMAP
6080
E080
6100
6100
6300
6200
6200
6400
6400
6DE0
0830
0830
1030
1060
30C0
2180
2180
41F0
41F0
ENDCHAR
STARTCHAR 00BE
ENCODING 190
SWIDTH 518 0
DWIDTH 14 0
BBX 12 19 1 0
BITMAP
F060
F840
1840
1880
7080
7180
1900
1900
1A00
FA40
F6C0
04C0
04A0
08A0
09A0
1920
11F0
1020
2020
ENDCHAR
STARTCHAR 00BF
ENCODING 191
SWIDTH 259 0
DWIDTH 7 0
BBX 7 19 1 -5
BITMAP
18
18
00
00
00
18
18
18
18
38
70
C0
C0
C0
C0
C0
C0
7E
7E
ENDCHAR
STARTCHAR 00C0
ENCODING 192
SWIDTH 407 0
DWIDTH 11 0
BBX 11 24 0 0
BITMAP
0C00
0C00
0C00
0400
0000
0E00
0E00
0E00
1A00
1B00
1B00
1B00
1B00
3100
3180
3180
3180
3F80
7F80
60C0
60C0
60C0
60C0
C060
ENDCHAR
STARTCHAR 00C1
ENCODING 193
SWIDTH 407 0
DWIDTH 11 0
BBX 11 24 0 0
BITMAP
0600
0600
0600
0400
0000
0E00
0E00
0E00
1A00
1B00
1B00
1B00
1B00
3100
3180
3180
3180
3F80
7F80
60C0
60C0
60C0
60C0
C060
ENDCHAR
STARTCHAR 00C2
ENCODING 194
SWIDTH 407 0
DWIDTH 11 0
BBX 11 24 0 0
BITMAP
0400
0E00
1B00
1100
0000
0E00
0E00
0E00
1A00
1B00
1B00
1B00
1B00
3100
3180
3180
3180
3F80
7F80
60C0
60C0
60C0
60C0
C060
ENDCHAR
STARTCHAR 00C3
ENCODING 195
SWIDTH 407 0
DWIDTH 11 0
BBX 11 24 0 0
BITMAP
1080
3D80
2780
2000
0000
0E00
0E00
0E00
1A00
1B00
1B00
1B00
1B00
3100
3180
3180
3180
3F80
7F80
60C0
60C0
60C0
60C0
C060
ENDCHAR
STARTCHAR 00C4
ENCODING 196
SWIDTH 407 0
DWIDTH 11 0
BBX 11 23 0 0
BITMAP
3180
3180
0000
0000
0E00
0E00
0E00
1A00
1B00
1B00
1B00
1B00
3100
3180
3180
3180
3F80
7F80
60C0
60C0
60C0
60C0
C060
ENDCHAR
STARTCHAR 00C5
ENCODING 197
SWIDTH 407 0
DWIDTH 11 0
BBX 11 24 0 0
BITMAP
0400
1F00
1100
1100
1B00
1F00
0E00
0E00
0A00
1B00
1B00
1B00
1B00
1100
3180
3180
3180
3F80
3F80
60C0
60C0
60C0
60C0
C060
ENDCHAR
STARTCHAR 00C6
ENCODING 198
SWIDTH 555 0
DWIDTH 15 0
BBX 14 19 0 0
BITMAP
07FC
07FC
0F00
0F00
0F00
1B00
1900
1980
1980
31F8
31F8
3180
3F80
7F80
6080
60C0
40C0
C0FC
C0FC
ENDCHAR
STARTCHAR 00C7
ENCODING 199
SWIDTH 333 0
DWIDTH 9 0
BBX 7 24 1 -5
BITMAP
3E
7E
60
C0
C0
C0
C0
C0
C0
C0
C0
C0
C0
C0
C0
C0
60
7E
3E
30
30
20
20
60
ENDCHAR
STARTCHAR 00C8
ENCODING 200
SWIDTH 333 0
DWIDTH 9 0
BBX 7 24 2 0
BITMAP
60
30
30
10
00
FE
FE
80
80
80
80
80
80
80
FC
FC
80
80
80
80
80
80
FE
FE
ENDCHAR
STARTCHAR 00C9
ENCODING 201
SWIDTH 333 0
DWIDTH 9 0
BBX 7 24 2 0
BITMAP
18
18
10
30
00
FE
FE
80
80
80
80
80
80
80
FC
FC
80
80
80
80
80
80
FE
FE
ENDCHAR
STARTCHAR 00CA
ENCODING 202
SWIDTH 333 0
DWIDTH 9 0
BBX 7 24 2 0
BITMAP
30
38
48
CC
00
FE
FE
80
80
80
80
80
80
80
FC
FC
80
80
80
80
80
80
FE
FE
ENDCHAR
STARTCHAR 00CB
ENCODING 203
SWIDTH 333 0
DWIDTH 9 0
BBX 7 23 2 0
BITMAP
CC
CC
00
00
FE
FE
80
80
80
80
80
80
80
FC
FC
80
80
80
80
80
80
FE
FE
ENDCHAR
STARTCHAR 00CC
ENCODING 204
SWIDTH 185 0
DWIDTH 5 0
BBX 2 24 1 0
BITMAP
C0
C0
40
40
00
40
40
40
40
40
40
40
40
40
40
40
40
40
40
40
40
40
40
40
ENDCHAR
STARTCHAR 00CD
ENCODING 205
SWIDTH 185 0
DWIDTH 5 0
BBX 2 24 2 0
BITMAP
C0
C0
C0
80
00
80
80
80
80
80
80
80
80
80
80
80
80
80
80
80
80
80
80
80
ENDCHAR
STARTCHAR 00CE
ENCODING 206
SWIDTH 185 0
DWIDTH 5 0
BBX 5 24 0 0
BITMAP
30
70
D8
88
00
20
20
20
20
20
20
20
20
20
20
20
20
20
20
20
20
20
20
20
ENDCHAR
STARTCHAR 00CF
ENCODING 207
SWIDTH 185 0
DWIDTH 5 0
BBX 7 23 -1 0
BITMAP
C6
C6
00
00
10
10
10
10
10
10
10
10
10
10
10
10
10
10
10
10
10
10
10
ENDCHAR
STARTCHAR 00D0
ENCODING 208
SWIDTH 407 0
DWIDTH 11 0
BBX 10 19 0 0
BITMAP
3F00
3F80
2180
20C0
20C0
20C0
20C0
20C0
20C0
FCC0
FCC0
20C0
20C0
20C0
20C0
20C0
2180
3F80
3F00
ENDCHAR
STARTCHAR 00D1
ENCODING 209
SWIDTH 444 0
DWIDTH 12 0
BBX 8 24 2 0
BITMAP
22
7A
4E
40
00
C3
C3
C3
E3
E3
A3
B3
B3
93
9B
9B
8B
8F
8F
87
87
87
83
83
ENDCHAR
STARTCHAR 00D2
ENCODING 210
SWIDTH 407 0
DWIDTH 11 0
BBX 9 24 1 0
BITMAP
1800
1800
0800
0C00
0000
3E00
7F00
6180
C180
C180
C180
C180
C180
C180
C180
C180
C180
C180
C180
C180
C180
6180
7F00
3F00
ENDCHAR
STARTCHAR 00D3
ENCODING 211
SWIDTH 407 0
DWIDTH 11 0
BBX 9 24 1 0
BITMAP
0600
0C00
0C00
0800
0000
3E00
7F00
6180
C180
C180
C180
C180
C180
C180
C180
C180
C180
C180
C180
C180
C180
6180
7F00
3F00
ENDCHAR
STARTCHAR 00D4
ENCODING 212
SWIDTH 407 0
DWIDTH 11 0
BBX 9 24 1 0
BITMAP
0C00
1C00
1600
3300
0000
3E00
7F00
6180
C180
C180
C180
C180
C180
C180
C180
C180
C180
C180
C180
C180
C180
6180
7F00
3F00
ENDCHAR
STARTCHAR 00D5
ENCODING 213
SWIDTH 407 0
DWIDTH 11 0
BBX 9 24 1 0
BITMAP
2100
3D00
6F00
6000
0000
3E00
7F00
6180
C180
C180
C180
C180
C180
C180
C180
C180
C180
C180
C180
C180
C180
6180
7F00
3F00
ENDCHAR
STARTCHAR 00D6
ENCODING 214
SWIDTH 407 0
DWIDTH 11 0
BBX 9 23 1 0
BITMAP
2300
2300
0000
0000
3E00
7F00
6180
C180
C180
C180
C180
C180
C180
C180
C180
C180
C180
C180
C180
C180
6180
7F00
3F00
ENDCHAR
STARTCHAR 00D7
ENCODING 215
SWIDTH 407 0
DWIDTH 11 0
BBX 8 8 2 3
BITMAP
82
C7
6C
38
38
6C
C6
83
ENDCHAR
STARTCHAR 00D8
ENCODING 216
SWIDTH 407 0
DWIDTH 11 0
BBX 9 21 1 -1
BITMAP
0180
3F80
7F00
6180
C180
C180
C180
C180
C180
C180
C180
C180
C180
C180
C180
C180
C180
6180
7F00
7F00
C000
ENDCHAR
STARTCHAR 00D9
ENCODING 217
SWIDTH 407 0
DWIDTH 11 0
BBX 9 24 1 0
BITMAP
1800
1800
0800
0C00
0000
C180
C180
C180
C180
C180
C180
C180
C180
C180
C180
C180
C180
C180
C180
C180
4180
6180
7F00
3E00
ENDCHAR
STARTCHAR 00DA
ENCODING 218
SWIDTH 407 0
DWIDTH 11 0
BBX 9 24 1 0
BITMAP
0600
0400
0C00
0C00
0000
C180
C180
C180
C180
C180
C180
C180
C180
C180
C180
C180
C180
C180
C180
C180
4180
6180
7F00
3E00
ENDCHAR
STARTCHAR 00DB
ENCODING 219
SWIDTH 407 0
DWIDTH 11 0
BBX 9 24 1 0
BITMAP
0C00
1C00
1600
3300
0000
C180
C180
C180
C180
C180
C180
C180
C180
C180
C180
C180
C180
C180
C180
C180
4180
6180
7F00
3E00
ENDCHAR
STARTCHAR 00DC
ENCODING 220
SWIDTH 407 0
DWIDTH 11 0
BBX 9 23 1 0
BITMAP
2300
2300
0000
0000
C180
C180
C180
C180
C180
C180
C180
C180
C180
C180
C180
C180
C180
C180
C180
4180
6180
7F00
3E00
ENDCHAR
STARTCHAR 00DD
ENCODING 221
SWIDTH 370 0
DWIDTH 10 0
BBX 10 24 0 0
BITMAP
0600
0400
0C00
0C00
0000
C0C0
C180
6180
6100
6300
3300
3200
3600
1600
1C00
1C00
0C00
0C00
0C00
0C00
0C00
0C00
0C00
0C00
ENDCHAR
STARTCHAR 00DE
ENCODING 222
SWIDTH 370 0
DWIDTH 10 0
BBX 8 19 2 0
BITMAP
80
80
80
80
FC
FE
83
83
83
83
83
83
83
86
FE
F0
80
80
80
ENDCHAR
STARTCHAR 00DF
ENCODING 223
SWIDTH 407 0
DWIDTH 11 0
BBX 9 20 1 0
BITMAP
3E00
7F00
6300
C100
C100
C100
C300
CE00
CF00
C300
C100
C100
C180
C180
C180
C180
C100
C300
CF00
CE00
ENDCHAR
STARTCHAR 00E0
ENCODING 224
SWIDTH 370 0
DWIDTH 10 0
BBX 7 20 1 0
BITMAP
30
30
10
18
00
00
FC
FE
06
02
02
02
7E
FE
C2
82
82
C6
FA
7A
ENDCHAR
STARTCHAR 00E1
ENCODING 225
SWIDTH 370 0
DWIDTH 10 0
BBX 7 20 1 0
BITMAP
0C
08
18
18
00
00
FC
FE
06
02
02
02
7E
FE
C2
82
82
C6
FA
7A
ENDCHAR
STARTCHAR 00E2
ENCODING 226
SWIDTH 370 0
DWIDTH 10 0
BBX 7 20 1 0
BITMAP
18
38
24
66
00
00
FC
FE
06
02
02
02
7E
FE
C2
82
82
C6
FA
7A
ENDCHAR
STARTCHAR 00E3
ENCODING 227
SWIDTH 370 0
DWIDTH 10 0
BBX 7 21 1 0
BITMAP
22
7A
4E
40
00
00
00
FC
FE
06
02
02
02
7E
FE
C2
82
82
C6
FA
7A
ENDCHAR
STARTCHAR 00E4
ENCODING 228
SWIDTH 370 0
DWIDTH 10 0
BBX 7 20 1 0
BITMAP
66
66
00
00
00
00
FC
FE
06
02
02
02
7E
FE
C2
82
82
C6
FA
7A
ENDCHAR
STARTCHAR 00E5
ENCODING 229
SWIDTH 370 0
DWIDTH 10 0
BBX 7 22 1 0
BITMAP
3C
7C
64
7C
3C
00
00
00
FC
FE
06
02
02
02
7E
FE
C2
82
82
C6
FA
7A
ENDCHAR
STARTCHAR 00E6
ENCODING 230
SWIDTH 592 0
DWIDTH 16 0
BBX 14 14 1 0
BITMAP
FCF0
FFF8
0718
0308
0308
020C
7FFC
FFFC
C200
8300
8300
C700
FDF8
78F8
ENDCHAR
STARTCHAR 00E7
ENCODING 231
SWIDTH 296 0
DWIDTH 8 0
BBX 6 19 1 -5
BITMAP
3C
7C
C0
C0
C0
C0
C0
C0
C0
C0
C0
C0
7C
3C
20
20
20
60
60
ENDCHAR
STARTCHAR 00E8
ENCODING 232
SWIDTH 370 0
DWIDTH 10 0
BBX 8 20 1 0
BITMAP
30
10
18
18
00
00
3C
7E
C3
C3
C3
C3
FF
FF
C0
C0
C0
C0
7F
3F
ENDCHAR
STARTCHAR 00E9
ENCODING 233
SWIDTH 370 0
DWIDTH 10 0
BBX 8 20 1 0
BITMAP
0C
0C
08
18
00
00
3C
7E
C3
C3
C3
C3
FF
FF
C0
C0
C0
C0
7F
3F
ENDCHAR
STARTCHAR 00EA
ENCODING 234
SWIDTH 370 0
DWIDTH 10 0
BBX 8 20 1 0
BITMAP
18
1C
34
66
00
00
3C
7E
C3
C3
C3
C3
FF
FF
C0
C0
C0
C0
7F
3F
ENDCHAR
STARTCHAR 00EB
ENCODING 235
SWIDTH 370 0
DWIDTH 10 0
BBX 8 20 1 0
BITMAP
66
66
00
00
00
00
3C
7E
C3
C3
C3
C3
FF
FF
C0
C0
C0
C0
7F
3F
ENDCHAR
STARTCHAR 00EC
ENCODING 236
SWIDTH 185 0
DWIDTH 5 0
BBX 3 20 0 0
BITMAP
C0
60
60
20
00
00
60
60
60
60
60
60
60
60
60
60
60
60
60
60
ENDCHAR
STARTCHAR 00ED
ENCODING 237
SWIDTH 185 0
DWIDTH 5 0
BBX 3 20 1 0
BITMAP
60
60
40
C0
00
00
C0
C0
C0
C0
C0
C0
C0
C0
C0
C0
C0
C0
C0
C0
ENDCHAR
STARTCHAR 00EE
ENCODING 238
SWIDTH 185 0
DWIDTH 5 0
BBX 6 20 -1 0
BITMAP
30
38
68
CC
00
00
30
30
30
30
30
30
30
30
30
30
30
30
30
30
ENDCHAR
STARTCHAR 00EF
ENCODING 239
SWIDTH 185 0
DWIDTH 5 0
BBX 6 20 -1 0
BITMAP
C4
C4
00
00
00
00
30
30
30
30
30
30
30
30
30
30
30
30
30
30
ENDCHAR
STARTCHAR 00F0
ENCODING 240
SWIDTH 370 0
DWIDTH 10 0
BBX 8 20 1 0
BITMAP
18
0F
3F
06
06
02
7B
7F
C3
C3
C3
C3
C3
C3
C3
C3
C3
C3
7F
3E
ENDCHAR
STARTCHAR 00F1
ENCODING 241
SWIDTH 370 0
DWIDTH 10 0
BBX 8 21 1 0
BITMAP
23
7B
4E
40
00
00
00
DE
FF
E3
C3
C3
C3
C3
C3
C3
C3
C3
C3
C3
C3
ENDCHAR
STARTCHAR 00F2
ENCODING 242
SWIDTH 370 0
DWIDTH 10 0
BBX 8 20 1 0
BITMAP
30
10
18
18
00
00
3E
7F
C3
C3
C3
C3
C3
C3
C3
C3
C3
C3
7F
3E
ENDCHAR
STARTCHAR 00F3
ENCODING 243
SWIDTH 370 0
DWIDTH 10 0
BBX 8 20 1 0
BITMAP
0C
08
18
18
00
00
3E
7F
C3
C3
C3
C3
C3
C3
C3
C3
C3
C3
7F
3E
ENDCHAR
STARTCHAR 00F4
ENCODING 244
SWIDTH 370 0
DWIDTH 10 0
BBX 8 20 1 0
BITMAP
18
1C
34
66
00
00
3E
7F
C3
C3
C3
C3
C3
C3
C3
C3
C3
C3
7F
3E
ENDCHAR
STARTCHAR 00F5
ENCODING 245
SWIDTH 370 0
DWIDTH 10 0
BBX 8 21 1 0
BITMAP
22
7A
4E
40
00
00
00
3E
7F
C3
C3
C3
C3
C3
C3
C3
C3
C3
C3
7F
3E
ENDCHAR
STARTCHAR 00F6
ENCODING 246
SWIDTH 370 0
DWIDTH 10 0
BBX 8 20 1 0
BITMAP
62
62
00
00
00
00
3E
7F
C3
C3
C3
C3
C3
C3
C3
C3
C3
C3
7F
3E
ENDCHAR
STARTCHAR 00F7
ENCODING 247
SWIDTH 444 0
DWIDTH 12 0
BBX 9 11 2 2
BITMAP
1800
1800
0000
0000
0000
FF80
FF80
0000
0000
1800
1800
ENDCHAR
STARTCHAR 00F8
ENCODING 248
SWIDTH 370 0
DWIDTH 10 0
BBX 8 17 1 -1
BITMAP
03
03
3E
7F
C3
C3
C3
C3
C3
C3
C3
C3
C3
C3
FF
7E
C0
ENDCHAR
STARTCHAR 00F9
ENCODING 249
SWIDTH 370 0
DWIDTH 10 0
BBX 8 20 1 0
BITMAP
30
18
18
08
00
00
C3
C3
C3
C3
C3
C3
C3
C3
C3
C3
C3
C3
7F
7B
ENDCHAR
STARTCHAR 00FA
ENCODING 250
SWIDTH 370 0
DWIDTH 10 0
BBX 8 20 1 0
BITMAP
0C
0C
08
18
00
00
C3
C3
C3
C3
C3
C3
C3
C3
C3
C3
C3
C3
7F
7B
ENDCHAR
STARTCHAR 00FB
ENCODING 251
SWIDTH 370 0
DWIDTH 10 0
BBX 8 20 1 0
BITMAP
18
1C
34
66
00
00
C3
C3
C3
C3
C3
C3
C3
C3
C3
C3
C3
C3
7F
7B
ENDCHAR
STARTCHAR 00FC
ENCODING 252
SWIDTH 370 0
DWIDTH 10 0
BBX 8 20 1 0
BITMAP
62
62
00
00
00
00
C3
C3
C3
C3
C3
C3
C3
C3
C3
C3
C3
C3
7F
7B
ENDCHAR
STARTCHAR 00FD
ENCODING 253
SWIDTH 370 0
DWIDTH 10 0
BBX 8 25 1 -5
BITMAP
0C
0C
08
08
00
00
C3
C3
C3
C3
C3
C3
C3
C3
C3
C3
C3
C3
7F
7B
03
03
03
7E
7C
ENDCHAR
STARTCHAR 00FE
ENCODING 254
SWIDTH 370 0
DWIDTH 10 0
BBX 8 25 1 -5
BITMAP
C0
C0
C0
C0
C0
C0
DE
FF
E3
C3
C1
C1
C1
C1
C1
C1
C3
E3
FF
DE
C0
C0
C0
C0
C0
ENDCHAR
STARTCHAR 00FF
ENCODING 255
SWIDTH 370 0
DWIDTH 10 0
BBX 8 25 1 -5
BITMAP
62
62
00
00
00
00
C3
C3
C3
C3
C3
C3
C3
C3
C3
C3
C3
C3
7F
7B
03
03
03
7E
7C
ENDCHAR
STARTCHAR 0100
ENCODING 256
SWIDTH 407 0
DWIDTH 11 0
BBX 11 24 0 0
BITMAP
1F00
1F00
0000
0000
0000
0E00
0E00
0E00
1A00
1B00
1B00
1B00
1B00
3100
3180
3180
3180
3F80
7F80
60C0
60C0
60C0
60C0
C060
ENDCHAR
STARTCHAR 0101
ENCODING 257
SWIDTH 370 0
DWIDTH 10 0
BBX 7 20 1 0
BITMAP
3C
3C
00
00
00
00
FC
FE
06
02
02
02
7E
FE
C2
82
82
C6
FA
7A
ENDCHAR
STARTCHAR 0102
ENCODING 258
SWIDTH 407 0
DWIDTH 11 0
BBX 11 24 0 0
BITMAP
1100
1100
1B00
0E00
0000
0E00
0E00
0E00
1A00
1B00
1B00
1B00
1B00
3100
3180
3180
3180
3F80
7F80
60C0
60C0
60C0
60C0
C060
ENDCHAR
STARTCHAR 0103
ENCODING 259
SWIDTH 370 0
DWIDTH 10 0
BBX 7 20 1 0
BITMAP
46
66
7C
3C
00
00
FC
FE
06
02
02
02
7E
FE
C2
82
82
C6
FA
7A
ENDCHAR
STARTCHAR 0104
ENCODING 260
SWIDTH 407 0
DWIDTH 11 0
BBX 11 24 0 -5
BITMAP
0E00
0E00
0E00
1A00
1B00
1B00
1B00
1100
3100
3180
3180
3180
3F80
7F80
60C0
60C0
60C0
60C0
C060
00C0
0080
0180
01C0
00C0
ENDCHAR
STARTCHAR 0105
ENCODING 261
SWIDTH 370 0
DWIDTH 10 0
BBX 8 19 1 -5
BITMAP
FC
FE
06
02
02
02
7E
FE
C2
82
82
C6
FA
7A
06
04
04
07
07
ENDCHAR
STARTCHAR 0106
ENCODING 262
SWIDTH 333 0
DWIDTH 9 0
BBX 7 24 1 0
BITMAP
18
18
10
10
00
3E
7E
60
C0
C0
C0
C0
C0
C0
C0
C0
C0
C0
C0
C0
C0
60
7E
3E
ENDCHAR
STARTCHAR 0107
ENCODING 263
SWIDTH 296 0
DWIDTH 8 0
BBX 6 20 1 0
BITMAP
18
18
10
30
00
00
3C
7C
C0
C0
C0
C0
C0
C0
C0
C0
C0
C0
7C
3C
ENDCHAR
STARTCHAR 0108
ENCODING 264
SWIDTH 333 0
DWIDTH 9 0
BBX 7 24 1 0
BITMAP
38
38
4C
C4
00
3E
7E
60
C0
C0
C0
C0
C0
C0
C0
C0
C0
C0
C0
C0
C0
60
7E
3E
ENDCHAR
STARTCHAR 0109
ENCODING 265
SWIDTH 296 0
DWIDTH 8 0
BBX 6 20 1 0
BITMAP
30
78
48
CC
00
00
3C
7C
C0
C0
C0
C0
C0
C0
C0
C0
C0
C0
7C
3C
ENDCHAR
STARTCHAR 010A
ENCODING 266
SWIDTH 333 0
DWIDTH 9 0
BBX 7 24 1 0
BITMAP
30
30
00
00
00
3E
7E
60
C0
C0
C0
C0
C0
C0
C0
C0
C0
C0
C0
C0
C0
60
7E
3E
ENDCHAR
STARTCHAR 010B
ENCODING 267
SWIDTH 296 0
DWIDTH 8 0
BBX 6 20 1 0
BITMAP
30
30
00
00
00
00
3C
7C
C0
C0
C0
C0
C0
C0
C0
C0
C0
C0
7C
3C
ENDCHAR
STARTCHAR 010C
ENCODING 268
SWIDTH 333 0
DWIDTH 9 0
BBX 7 24 1 0
BITMAP
C4
68
38
30
00
3E
7E
60
C0
C0
C0
C0
C0
C0
C0
C0
C0
C0
C0
C0
C0
60
7E
3E
ENDCHAR
STARTCHAR 010D
ENCODING 269
SWIDTH 296 0
DWIDTH 8 0
BBX 6 20 1 0
BITMAP
84
48
78
30
00
00
3C
7C
C0
C0
C0
C0
C0
C0
C0
C0
C0
C0
7C
3C
ENDCHAR
STARTCHAR 010E
ENCODING 270
SWIDTH 407 0
DWIDTH 11 0
BBX 8 24 2 0
BITMAP
44
6C
28
38
00
FC
FE
86
83
83
83
83
83
83
83
83
83
83
83
83
83
86
FE
FC
ENDCHAR
STARTCHAR 010F
ENCODING 271
SWIDTH 407 0
DWIDTH 11 0
BBX 11 20 1 0
BITMAP
0300
0360
0360
0360
0360
0360
7B40
7F40
C300
C300
C300
C300
C300
C300
C300
C300
C300
C300
7F00
7B00
ENDCHAR
STARTCHAR 0110
ENCODING 272
SWIDTH 407 0
DWIDTH 11 0
BBX 10 19 0 0
BITMAP
3F00
3F80
2180
20C0
20C0
20C0
20C0
20C0
20C0
FCC0
FCC0
20C0
20C0
20C0
20C0
20C0
2180
3F80
3F00
ENDCHAR
STARTCHAR 0111
ENCODING 273
SWIDTH 370 0
DWIDTH 10 0
BBX 9 20 1 0
BITMAP
0300
1F80
1F80
0300
0300
0300
7B00
7F00
C300
C300
C300
C300
C300
C300
C300
C300
C300
C300
7F00
7B00
ENDCHAR
STARTCHAR 0112
ENCODING 274
SWIDTH 333 0
DWIDTH 9 0
BBX 7 24 2 0
BITMAP
78
78
00
00
00
FE
FE
80
80
80
80
80
80
80
FC
FC
80
80
80
80
80
80
FE
FE
ENDCHAR
STARTCHAR 0113
ENCODING 275
SWIDTH 370 0
DWIDTH 10 0
BBX 8 20 1 0
BITMAP
3C
3C
00
00
00
00
3C
7E
C3
C3
C3
C3
FF
FF
C0
C0
C0
C0
7F
3F
ENDCHAR
STARTCHAR 0114
ENCODING 276
SWIDTH 333 0
DWIDTH 9 0
BBX 7 24 2 0
BITMAP
CC
CC
78
38
00
FE
FE
80
80
80
80
80
80
80
FC
FC
80
80
80
80
80
80
FE
FE
ENDCHAR
STARTCHAR 0115
ENCODING 277
SWIDTH 370 0
DWIDTH 10 0
BBX 8 20 1 0
BITMAP
66
66
7E
3C
00
00
3C
7E
C3
C3
C3
C3
FF
FF
C0
C0
C0
C0
7F
3F
ENDCHAR
STARTCHAR 0116
ENCODING 278
SWIDTH 333 0
DWIDTH 9 0
BBX 7 24 2 0
BITMAP
30
30
00
00
00
FE
FE
80
80
80
80
80
80
80
FC
FC
80
80
80
80
80
80
FE
FE
ENDCHAR
STARTCHAR 0117
ENCODING 279
SWIDTH 370 0
DWIDTH 10 0
BBX 8 20 1 0
BITMAP
18
18
00
00
00
00
3C
7E
C3
C3
C3
C3
FF
FF
C0
C0
C0
C0
7F
3F
ENDCHAR
STARTCHAR 0118
ENCODING 280
SWIDTH 333 0
DWIDTH 9 0
BBX 7 24 2 -5
BITMAP
FE
FE
80
80
80
80
80
80
FC
FC
80
80
80
80
80
80
80
FE
FE
04
08
18
1C
0C
ENDCHAR
STARTCHAR 0119
ENCODING 281
SWIDTH 370 0
DWIDTH 10 0
BBX 8 19 1 -5
BITMAP
3C
7E
C3
C3
C3
C3
FF
FF
C0
C0
C0
C0
7F
3F
06
04
0C
0E
06
ENDCHAR
STARTCHAR 011A
ENCODING 282
SWIDTH 333 0
DWIDTH 9 0
BBX 7 24 2 0
BITMAP
CC
48
78
30
00
FE
FE
80
80
80
80
80
80
80
FC
FC
80
80
80
80
80
80
FE
FE
ENDCHAR
STARTCHAR 011B
ENCODING 283
SWIDTH 370 0
DWIDTH 10 0
BBX 8 20 1 0
BITMAP
46
24
3C
18
00
00
3C
7E
C3
C3
C3
C3
FF
FF
C0
C0
C0
C0
7F
3F
ENDCHAR
STARTCHAR 011C
ENCODING 284
SWIDTH 407 0
DWIDTH 11 0
BBX 9 24 1 0
BITMAP
1C00
1400
3600
2200
0000
3F80
7F80
6000
4000
C000
C000
C000
C000
C000
C780
C780
C180
C180
C180
C180
4180
6180
7F80
3F80
ENDCHAR
STARTCHAR 011D
ENCODING 285
SWIDTH 370 0
DWIDTH 10 0
BBX 8 25 1 -5
BITMAP
18
1C
34
66
00
00
7B
7F
C3
C3
C3
C3
C3
C3
C3
C3
C3
C3
7F
7B
03
03
03
FE
FC
ENDCHAR
STARTCHAR 011E
ENCODING 286
SWIDTH 407 0
DWIDTH 11 0
BBX 9 24 1 0
BITMAP
2200
2200
3600
1800
0000
3F80
7F80
6000
4000
C000
C000
C000
C000
C000
C780
C780
C180
C180
C180
C180
4180
6180
7F80
3F80
ENDCHAR
STARTCHAR 011F
ENCODING 287
SWIDTH 370 0
DWIDTH 10 0
BBX 8 25 1 -5
BITMAP
62
62
3E
3C
00
00
7B
7F
C3
C3
C3
C3
C3
C3
C3
C3
C3
C3
7F
7B
03
03
03
FE
FC
ENDCHAR
STARTCHAR 0120
ENCODING 288
SWIDTH 407 0
DWIDTH 11 0
BBX 9 24 1 0
BITMAP
1800
1800
0000
0000
0000
3F80
7F80
6000
4000
C000
C000
C000
C000
C000
C780
C780
C180
C180
C180
C180
4180
6180
7F80
3F80
ENDCHAR
STARTCHAR 0121
ENCODING 289
SWIDTH 370 0
DWIDTH 10 0
BBX 8 25 1 -5
BITMAP
18
18
00
00
00
00
7B
7F
C3
C3
C3
C3
C3
C3
C3
C3
C3
C3
7F
7B
03
03
03
FE
FC
ENDCHAR
STARTCHAR 0122
ENCODING 290
SWIDTH 407 0
DWIDTH 11 0
BBX 9 26 1 -7
BITMAP
3F80
7F80
6000
4000
C000
C000
C000
C000
C000
C780
C780
C180
C180
C180
C180
4180
6180
7F80
3F80
0000
0000
0C00
0C00
0C00
1C00
1800
ENDCHAR
STARTCHAR 0123
ENCODING 291
SWIDTH 370 0
DWIDTH 10 0
BBX 8 26 1 -5
BITMAP
0C
1C
10
18
18
00
00
7B
7F
C3
C3
C3
C3
C3
C3
C3
C3
C3
C3
7F
7B
03
03
03
FE
FC
ENDCHAR
STARTCHAR 0124
ENCODING 292
SWIDTH 444 0
DWIDTH 12 0
BBX 8 24 2 0
BITMAP
18
3C
24
46
00
83
83
83
83
83
83
83
83
83
FF
FF
83
83
83
83
83
83
83
83
ENDCHAR
STARTCHAR 0125
ENCODING 293
SWIDTH 370 0
DWIDTH 10 0
BBX 10 25 -1 0
BITMAP
3000
3800
6800
CC00
0000
3000
3000
3000
3000
3000
3000
3780
3FC0
38C0
30C0
30C0
30C0
30C0
30C0
30C0
30C0
30C0
30C0
30C0
30C0
ENDCHAR
STARTCHAR 0126
ENCODING 294
SWIDTH 444 0
DWIDTH 12 0
BBX 8 19 2 0
BITMAP
83
83
83
83
FF
FF
83
83
83
FF
FF
83
83
83
83
83
83
83
83
ENDCHAR
STARTCHAR 0127
ENCODING 295
SWIDTH 370 0
DWIDTH 10 0
BBX 9 20 0 0
BITMAP
6000
FC00
FC00
6000
6000
6000
6F00
7F80
7180
6180
6180
6180
6180
6180
6180
6180
6180
6180
6180
6180
ENDCHAR
STARTCHAR 0128
ENCODING 296
SWIDTH 185 0
DWIDTH 5 0
BBX 7 24 -1 0
BITMAP
62
FE
8C
00
00
10
10
10
10
10
10
10
10
10
10
10
10
10
10
10
10
10
10
10
ENDCHAR
STARTCHAR 0129
ENCODING 297
SWIDTH 185 0
DWIDTH 5 0
BBX 7 21 -1 0
BITMAP
46
F6
9C
80
00
00
00
30
30
30
30
30
30
30
30
30
30
30
30
30
30
ENDCHAR
STARTCHAR 012A
ENCODING 298
SWIDTH 185 0
DWIDTH 5 0
BBX 5 24 0 0
BITMAP
F8
F8
00
00
00
20
20
20
20
20
20
20
20
20
20
20
20
20
20
20
20
20
20
20
ENDCHAR
STARTCHAR 012B
ENCODING 299
SWIDTH 185 0
DWIDTH 5 0
BBX 5 20 0 0
BITMAP
F8
F8
00
00
00
00
60
60
60
60
60
60
60
60
60
60
60
60
60
60
ENDCHAR
STARTCHAR 012C
ENCODING 300
SWIDTH 185 0
DWIDTH 5 0
BBX 5 24 0 0
BITMAP
88
88
D8
30
00
20
20
20
20
20
20
20
20
20
20
20
20
20
20
20
20
20
20
20
ENDCHAR
STARTCHAR 012D
ENCODING 301
SWIDTH 185 0
DWIDTH 5 0
BBX 5 20 0 0
BITMAP
88
88
F8
F0
00
00
60
60
60
60
60
60
60
60
60
60
60
60
60
60
ENDCHAR
STARTCHAR 012E
ENCODING 302
SWIDTH 185 0
DWIDTH 5 0
BBX 4 24 0 -5
BITMAP
20
20
20
20
20
20
20
20
20
20
20
20
20
20
20
20
20
20
20
20
40
C0
F0
70
ENDCHAR
STARTCHAR 012F
ENCODING 303
SWIDTH 185 0
DWIDTH 5 0
BBX 3 25 0 -5
BITMAP
60
60
00
00
00
00
60
60
60
60
60
60
60
60
60
60
60
60
60
60
60
40
C0
E0
60
ENDCHAR
STARTCHAR 0130
ENCODING 304
SWIDTH 185 0
DWIDTH 5 0
BBX 1 24 2 0
BITMAP
80
80
00
00
00
80
80
80
80
80
80
80
80
80
80
80
80
80
80
80
80
80
80
80
ENDCHAR
STARTCHAR 0131
ENCODING 305
SWIDTH 185 0
DWIDTH 5 0
BBX 2 14 1 0
BITMAP
C0
C0
C0
C0
C0
C0
C0
C0
C0
C0
C0
C0
C0
C0
ENDCHAR
STARTCHAR 0132
ENCODING 306
SWIDTH 407 0
DWIDTH 11 0
BBX 7 19 2 0
BITMAP
86
86
86
86
86
86
86
86
86
86
86
86
86
86
86
86
86
9E
9C
ENDCHAR
STARTCHAR 0133
ENCODING 307
SWIDTH 333 0
DWIDTH 9 0
BBX 7 25 1 -5
BITMAP
C6
C6
00
00
00
00
C6
C6
C6
C6
C6
C6
C6
C6
C6
C6
C6
C6
C6
C6
06
06
06
1E
1C
ENDCHAR
STARTCHAR 0134
ENCODING 308
SWIDTH 185 0
DWIDTH 5 0
BBX 6 24 0 0
BITMAP
30
78
48
C4
00
30
30
30
30
30
30
30
30
30
30
30
30
30
30
30
30
30
F0
E0
ENDCHAR
STARTCHAR 0135
ENCODING 309
SWIDTH 185 0
DWIDTH 5 0
BBX 6 25 -1 -5
BITMAP
30
38
68
CC
00
00
30
30
30
30
30
30
30
30
30
30
30
30
30
30
30
30
30
70
60
ENDCHAR
STARTCHAR 0136
ENCODING 310
SWIDTH 407 0
DWIDTH 11 0
BBX 8 26 2 -7
BITMAP
83
83
86
86
86
8C
8C
88
98
F8
F8
98
8C
8C
86
86
86
83
83
00
00
18
18
18
30
30
ENDCHAR
STARTCHAR 0137
ENCODING 311
SWIDTH 333 0
DWIDTH 9 0
BBX 8 27 1 -7
BITMAP
C0
C0
C0
C0
C0
C0
C3
C6
C6
C4
CC
CC
F8
F8
CC
CC
C4
C6
C6
C3
00
00
18
18
08
38
30
ENDCHAR
STARTCHAR 0138
ENCODING 312
SWIDTH 333 0
DWIDTH 9 0
BBX 8 14 1 0
BITMAP
C3
C6
C6
C4
CC
CC
F8
F8
CC
CC
C4
C6
C6
C3
ENDCHAR
STARTCHAR 0139
ENCODING 313
SWIDTH 296 0
DWIDTH 8 0
BBX 6 24 2 0
BITMAP
60
C0
C0
80
00
80
80
80
80
80
80
80
80
80
80
80
80
80
80
80
80
80
FC
FC
ENDCHAR
STARTCHAR 013A
ENCODING 314
SWIDTH 185 0
DWIDTH 5 0
BBX 3 25 1 0
BITMAP
60
60
40
40
00
C0
C0
C0
C0
C0
C0
C0
C0
C0
C0
C0
C0
C0
C0
C0
C0
C0
C0
C0
C0
ENDCHAR
STARTCHAR 013B
ENCODING 315
SWIDTH 296 0
DWIDTH 8 0
BBX 6 26 2 -7
BITMAP
80
80
80
80
80
80
80
80
80
80
80
80
80
80
80
80
80
FC
FC
00
00
30
30
30
60
60
ENDCHAR
STARTCHAR 013C
ENCODING 316
SWIDTH 185 0
DWIDTH 5 0
BBX 3 27 1 -7
BITMAP
C0
C0
C0
C0
C0
C0
C0
C0
C0
C0
C0
C0
C0
C0
C0
C0
C0
C0
C0
C0
00
00
60
60
60
C0
C0
ENDCHAR
STARTCHAR 013D
ENCODING 317
SWIDTH 296 0
DWIDTH 8 0
BBX 6 19 2 0
BITMAP
88
88
88
98
98
98
98
80
80
80
80
80
80
80
80
80
80
FC
FC
ENDCHAR
STARTCHAR 013E
ENCODING 318
SWIDTH 185 0
DWIDTH 5 0
BBX 5 20 1 0
BITMAP
C0
D8
D8
D8
D8
D8
D8
D0
C0
C0
C0
C0
C0
C0
C0
C0
C0
C0
C0
C0
ENDCHAR
STARTCHAR 013F
ENCODING 319
SWIDTH 333 0
DWIDTH 9 0
BBX 6 19 2 0
BITMAP
80
80
80
80
80
80
80
80
8C
8C
80
80
80
80
80
80
80
FC
FC
ENDCHAR
STARTCHAR 0140
ENCODING 320
SWIDTH 222 0
DWIDTH 6 0
BBX 5 20 1 0
BITMAP
C0
C0
C0
C0
C0
C0
C0
C0
C0
C0
C0
D8
D8
C0
C0
C0
C0
C0
C0
C0
ENDCHAR
STARTCHAR 0141
ENCODING 321
SWIDTH 296 0
DWIDTH 8 0
BBX 8 19 0 0
BITMAP
20
20
20
20
20
20
20
20
26
3E
F0
A0
20
20
20
20
20
3F
3F
ENDCHAR
STARTCHAR 0142
ENCODING 322
SWIDTH 185 0
DWIDTH 5 0
BBX 4 20 0 0
BITMAP
60
60
60
60
60
60
60
60
60
70
F0
E0
60
60
60
60
60
60
60
60
ENDCHAR
STARTCHAR 0143
ENCODING 323
SWIDTH 444 0
DWIDTH 12 0
BBX 8 24 2 0
BITMAP
0C
08
18
18
00
C3
C3
C3
E3
E3
A3
B3
B3
93
9B
9B
8B
8F
8F
87
87
87
83
83
ENDCHAR
STARTCHAR 0144
ENCODING 324
SWIDTH 370 0
DWIDTH 10 0
BBX 8 20 1 0
BITMAP
0C
0C
08
18
00
00
DE
FF
E3
C3
C3
C3
C3
C3
C3
C3
C3
C3
C3
C3
ENDCHAR
STARTCHAR 0145
ENCODING 325
SWIDTH 444 0
DWIDTH 12 0
BBX 8 26 2 -7
BITMAP
C3
C3
C3
E3
E3
A3
B3
B3
93
9B
9B
8B
8F
8F
87
87
87
83
83
00
00
18
18
08
18
18
ENDCHAR
STARTCHAR 0146
ENCODING 326
SWIDTH 370 0
DWIDTH 10 0
BBX 8 21 1 -7
BITMAP
DE
FF
E3
C3
C3
C3
C3
C3
C3
C3
C3
C3
C3
C3
00
00
18
18
08
18
18
ENDCHAR
STARTCHAR 0147
ENCODING 327
SWIDTH 444 0
DWIDTH 12 0
BBX 8 24 2 0
BITMAP
66
2C
38
18
00
C3
C3
C3
E3
E3
A3
B3
B3
93
9B
9B
8B
8F
8F
87
87
87
83
83
ENDCHAR
STARTCHAR 0148
ENCODING 328
SWIDTH 370 0
DWIDTH 10 0
BBX 8 20 1 0
BITMAP
62
26
3C
18
00
00
DE
FF
E3
C3
C3
C3
C3
C3
C3
C3
C3
C3
C3
C3
ENDCHAR
STARTCHAR 0149
ENCODING 329
SWIDTH 407 0
DWIDTH 11 0
BBX 10 20 0 0
BITMAP
6000
6000
6000
E000
C000
0000
3780
3FC0
38C0
30C0
30C0
30C0
30C0
30C0
30C0
30C0
30C0
30C0
30C0
30C0
ENDCHAR
STARTCHAR 014A
ENCODING 330
SWIDTH 444 0
DWIDTH 12 0
BBX 8 24 2 -5
BITMAP
C3
C3
C3
E3
E3
A3
B3
B3
93
9B
9B
8B
8F
87
87
87
83
83
83
03
03
03
07
06
ENDCHAR
STARTCHAR 014B
ENCODING 331
SWIDTH 370 0
DWIDTH 10 0
BBX 8 19 1 -5
BITMAP
DE
FF
E3
C3
C3
C3
C3
C3
C3
C3
C3
C3
C3
C3
03
03
03
07
06
ENDCHAR
STARTCHAR 014C
ENCODING 332
SWIDTH 407 0
DWIDTH 11 0
BBX 9 24 1 0
BITMAP
3E00
3E00
0000
0000
0000
3E00
7F00
6180
C180
C180
C180
C180
C180
C180
C180
C180
C180
C180
C180
C180
C180
6180
7F00
3F00
ENDCHAR
STARTCHAR 014D
ENCODING 333
SWIDTH 370 0
DWIDTH 10 0
BBX 8 20 1 0
BITMAP
3C
3C
00
00
00
00
3E
7F
C3
C3
C3
C3
C3
C3
C3
C3
C3
C3
7F
3E
ENDCHAR
STARTCHAR 014E
ENCODING 334
SWIDTH 407 0
DWIDTH 11 0
BBX 9 24 1 0
BITMAP
2200
2200
3600
0C00
0000
3E00
7F00
6180
C180
C180
C180
C180
C180
C180
C180
C180
C180
C180
C180
C180
C180
6180
7F00
3F00
ENDCHAR
STARTCHAR 014F
ENCODING 335
SWIDTH 370 0
DWIDTH 10 0
BBX 8 20 1 0
BITMAP
66
66
7E
3C
00
00
3E
7F
C3
C3
C3
C3
C3
C3
C3
C3
C3
C3
7F
3E
ENDCHAR
STARTCHAR 0150
ENCODING 336
SWIDTH 407 0
DWIDTH 11 0
BBX 9 24 1 0
BITMAP
0B00
1B00
1200
1200
0000
3E00
7F00
6180
C180
C180
C180
C180
C180
C180
C180
C180
C180
C180
C180
C180
C180
6180
7F00
3F00
ENDCHAR
STARTCHAR 0151
ENCODING 337
SWIDTH 370 0
DWIDTH 10 0
BBX 8 20 1 0
BITMAP
1B
12
36
00
00
00
3E
7F
C3
C3
C3
C3
C3
C3
C3
C3
C3
C3
7F
3E
ENDCHAR
STARTCHAR 0152
ENCODING 338
SWIDTH 592 0
DWIDTH 16 0
BBX 14 19 1 0
BITMAP
3FFC
7F7C
6180
C180
C180
C180
C180
C180
C180
C1FC
C1FC
C180
C180
C180
C180
C180
6180
7F7C
3FFC
ENDCHAR
STARTCHAR 0153
ENCODING 339
SWIDTH 592 0
DWIDTH 16 0
BBX 14 14 1 0
BITMAP
3CF8
7FFC
C30C
C30C
C30C
C30C
C3FC
C3FC
C300
C300
C300
C380
7FFC
3CFC
ENDCHAR
STARTCHAR 0154
ENCODING 340
SWIDTH 407 0
DWIDTH 11 0
BBX 8 24 2 0
BITMAP
0C
18
18
10
00
FC
FE
83
83
83
83
83
83
83
86
FE
FC
84
86
86
86
83
83
83
ENDCHAR
STARTCHAR 0155
ENCODING 341
SWIDTH 259 0
DWIDTH 7 0
BBX 5 20 1 0
BITMAP
30
30
20
20
00
00
D8
D8
E0
E0
C0
C0
C0
C0
C0
C0
C0
C0
C0
C0
ENDCHAR
STARTCHAR 0156
ENCODING 342
SWIDTH 407 0
DWIDTH 11 0
BBX 8 26 2 -7
BITMAP
FC
FE
83
83
83
83
83
83
83
86
FE
FC
84
86
86
86
83
83
83
00
00
18
18
08
38
30
ENDCHAR
STARTCHAR 0157
ENCODING 343
SWIDTH 259 0
DWIDTH 7 0
BBX 5 21 1 -7
BITMAP
D8
D8
E0
E0
C0
C0
C0
C0
C0
C0
C0
C0
C0
C0
00
00
60
60
60
C0
C0
ENDCHAR
STARTCHAR 0158
ENCODING 344
SWIDTH 407 0
DWIDTH 11 0
BBX 8 24 2 0
BITMAP
44
6C
28
38
00
FC
FE
83
83
83
83
83
83
83
86
FE
FC
84
86
86
86
83
83
83
ENDCHAR
STARTCHAR 0159
ENCODING 345
SWIDTH 259 0
DWIDTH 7 0
BBX 5 20 1 0
BITMAP
88
98
D0
70
00
00
D8
D8
E0
E0
C0
C0
C0
C0
C0
C0
C0
C0
C0
C0
ENDCHAR
STARTCHAR 015A
ENCODING 346
SWIDTH 370 0
DWIDTH 10 0
BBX 8 24 1 0
BITMAP
0C
08
18
18
00
3E
7E
C0
C0
C0
C0
C0
C0
F8
7E
07
03
03
03
03
03
03
FE
FC
ENDCHAR
STARTCHAR 015B
ENCODING 347
SWIDTH 333 0
DWIDTH 9 0
BBX 7 20 1 0
BITMAP
18
18
10
10
00
00
7C
FC
C0
C0
C0
C0
FC
3C
06
06
06
06
FC
F8
ENDCHAR
STARTCHAR 015C
ENCODING 348
SWIDTH 370 0
DWIDTH 10 0
BBX 8 24 1 0
BITMAP
18
3C
24
46
00
3E
7E
C0
C0
C0
C0
C0
C0
F8
7E
07
03
03
03
03
03
03
FE
FC
ENDCHAR
STARTCHAR 015D
ENCODING 349
SWIDTH 333 0
DWIDTH 9 0
BBX 7 20 1 0
BITMAP
30
38
68
CC
00
00
7C
FC
C0
C0
C0
C0
FC
3C
06
06
06
06
FC
F8
ENDCHAR
STARTCHAR 015E
ENCODING 350
SWIDTH 370 0
DWIDTH 10 0
BBX 8 24 1 -5
BITMAP
3E
7E
C0
C0
C0
C0
C0
C0
F8
7E
07
03
03
03
03
03
03
FE
FC
10
10
30
30
20
ENDCHAR
STARTCHAR 015F
ENCODING 351
SWIDTH 333 0
DWIDTH 9 0
BBX 7 19 1 -5
BITMAP
7C
FC
C0
C0
C0
C0
F8
3C
06
06
06
06
FC
FC
30
30
20
20
60
ENDCHAR
STARTCHAR 0160
ENCODING 352
SWIDTH 370 0
DWIDTH 10 0
BBX 8 24 1 0
BITMAP
46
24
3C
18
00
3E
7E
C0
C0
C0
C0
C0
C0
F8
7E
07
03
03
03
03
03
03
FE
FC
ENDCHAR
STARTCHAR 0161
ENCODING 353
SWIDTH 333 0
DWIDTH 9 0
BBX 7 20 1 0
BITMAP
44
4C
28
38
00
00
7C
FC
C0
C0
C0
C0
FC
3C
06
06
06
06
FC
F8
ENDCHAR
STARTCHAR 0162
ENCODING 354
SWIDTH 333 0
DWIDTH 9 0
BBX 9 24 0 -5
BITMAP
FF80
FF80
0800
0800
0800
0800
0800
0800
0800
0800
0800
0800
0800
0800
0800
0800
0800
0800
0800
0800
1800
1800
1000
3000
ENDCHAR
STARTCHAR 0163
ENCODING 355
SWIDTH 222 0
DWIDTH 6 0
BBX 6 23 0 -5
BITMAP
30
30
30
30
FC
FC
30
30
30
30
30
30
30
30
30
30
30
30
20
20
20
60
60
ENDCHAR
STARTCHAR 0164
ENCODING 356
SWIDTH 333 0
DWIDTH 9 0
BBX 9 24 0 0
BITMAP
2200
3600
1C00
1C00
0000
FF80
FF80
0800
0800
0800
0800
0800
0800
0800
0800
0800
0800
0800
0800
0800
0800
0800
0800
0800
ENDCHAR
STARTCHAR 0165
ENCODING 357
SWIDTH 259 0
DWIDTH 7 0
BBX 9 19 0 0
BITMAP
0180
3180
3180
3180
3100
FD00
FD00
3000
3000
3000
3000
3000
3000
3000
3000
3000
3000
3000
3000
ENDCHAR
STARTCHAR 0166
ENCODING 358
SWIDTH 333 0
DWIDTH 9 0
BBX 9 19 0 0
BITMAP
FF80
FF80
0800
0800
0800
0800
0800
0800
0800
7F00
7F00
0800
0800
0800
0800
0800
0800
0800
0800
ENDCHAR
STARTCHAR 0167
ENCODING 359
SWIDTH 222 0
DWIDTH 6 0
BBX 6 18 0 0
BITMAP
30
30
30
30
FC
FC
30
30
30
30
7C
7C
30
30
30
30
30
30
ENDCHAR
STARTCHAR 0168
ENCODING 360
SWIDTH 407 0
DWIDTH 11 0
BBX 9 24 1 0
BITMAP
3100
7F00
6600
0000
0000
C180
C180
C180
C180
C180
C180
C180
C180
C180
C180
C180
C180
C180
C180
C180
4180
6180
7F00
3E00
ENDCHAR
STARTCHAR 0169
ENCODING 361
SWIDTH 370 0
DWIDTH 10 0
BBX 8 21 1 0
BITMAP
23
7A
4E
40
00
00
00
C3
C3
C3
C3
C3
C3
C3
C3
C3
C3
C3
C3
7F
7B
ENDCHAR
STARTCHAR 016A
ENCODING 362
SWIDTH 407 0
DWIDTH 11 0
BBX 9 24 1 0
BITMAP
3E00
3E00
0000
0000
0000
C180
C180
C180
C180
C180
C180
C180
C180
C180
C180
C180
C180
C180
C180
C180
4180
6180
7F00
3E00
ENDCHAR
STARTCHAR 016B
ENCODING 363
SWIDTH 370 0
DWIDTH 10 0
BBX 8 20 1 0
BITMAP
3E
3E
00
00
00
00
C3
C3
C3
C3
C3
C3
C3
C3
C3
C3
C3
C3
7F
7B
ENDCHAR
STARTCHAR 016C
ENCODING 364
SWIDTH 407 0
DWIDTH 11 0
BBX 9 24 1 0
BITMAP
2200
2200
3600
0C00
0000
C180
C180
C180
C180
C180
C180
C180
C180
C180
C180
C180
C180
C180
C180
C180
4180
6180
7F00
3E00
ENDCHAR
STARTCHAR 016D
ENCODING 365
SWIDTH 370 0
DWIDTH 10 0
BBX 8 20 1 0
BITMAP
62
62
3E
3C
00
00
C3
C3
C3
C3
C3
C3
C3
C3
C3
C3
C3
C3
7F
7B
ENDCHAR
STARTCHAR 016E
ENCODING 366
SWIDTH 407 0
DWIDTH 11 0
BBX 9 25 1 0
BITMAP
1C00
3600
3200
3200
3E00
0000
C180
C180
C180
C180
C180
C180
C180
C180
C180
C180
C180
C180
C180
C180
C180
4180
6180
7F00
3E00
ENDCHAR
STARTCHAR 016F
ENCODING 367
SWIDTH 370 0
DWIDTH 10 0
BBX 8 22 1 0
BITMAP
3C
3E
26
3E
3C
00
00
00
C3
C3
C3
C3
C3
C3
C3
C3
C3
C3
C3
C3
7F
7B
ENDCHAR
STARTCHAR 0170
ENCODING 368
SWIDTH 407 0
DWIDTH 11 0
BBX 9 24 1 0
BITMAP
0B00
1B00
1200
1200
0000
C180
C180
C180
C180
C180
C180
C180
C180
C180
C180
C180
C180
C180
C180
C180
4180
6180
7F00
3E00
ENDCHAR
STARTCHAR 0171
ENCODING 369
SWIDTH 370 0
DWIDTH 10 0
BBX 8 20 1 0
BITMAP
1B
12
36
00
00
00
C3
C3
C3
C3
C3
C3
C3
C3
C3
C3
C3
C3
7F
7B
ENDCHAR
STARTCHAR 0172
ENCODING 370
SWIDTH 407 0
DWIDTH 11 0
BBX 9 24 1 -5
BITMAP
C180
C180
C180
C180
C180
C180
C180
C180
C180
C180
C180
C180
C180
C180
C180
4180
6180
7F00
3E00
0400
0400
0C00
0E00
0600
ENDCHAR
STARTCHAR 0173
ENCODING 371
SWIDTH 370 0
DWIDTH 10 0
BBX 8 19 1 -5
BITMAP
C3
C3
C3
C3
C3
C3
C3
C3
C3
C3
C3
C3
7F
7B
02
06
04
07
03
ENDCHAR
STARTCHAR 0174
ENCODING 372
SWIDTH 592 0
DWIDTH 16 0
BBX 15 24 0 0
BITMAP
0180
03C0
0240
0460
0000
C186
C386
4386
6386
63C6
62C6
62C4
62C4
664C
264C
266C
366C
346C
3468
3428
3C28
1C38
1C38
1838
ENDCHAR
STARTCHAR 0175
ENCODING 373
SWIDTH 518 0
DWIDTH 14 0
BBX 14 20 0 0
BITMAP
0300
0380
0480
0CC0
0000
0000
C30C
4308
6308
6398
6798
6798
2490
2490
3490
34F0
3CF0
1C70
1860
1860
ENDCHAR
STARTCHAR 0176
ENCODING 374
SWIDTH 370 0
DWIDTH 10 0
BBX 10 24 0 0
BITMAP
0C00
1E00
3200
2300
0000
C0C0
C180
6180
6100
6300
3300
3200
3600
1600
1C00
1C00
0C00
0C00
0C00
0C00
0C00
0C00
0C00
0C00
ENDCHAR
STARTCHAR 0177
ENCODING 375
SWIDTH 370 0
DWIDTH 10 0
BBX 8 25 1 -5
BITMAP
18
1C
34
66
00
00
C3
C3
C3
C3
C3
C3
C3
C3
C3
C3
C3
C3
7F
7B
03
03
03
7E
7C
ENDCHAR
STARTCHAR 0178
ENCODING 376
SWIDTH 370 0
DWIDTH 10 0
BBX 10 23 0 0
BITMAP
2300
2300
0000
0000
C0C0
C180
6180
6100
6300
3300
3200
3600
1600
1C00
1C00
0C00
0C00
0C00
0C00
0C00
0C00
0C00
0C00
ENDCHAR
STARTCHAR 0179
ENCODING 377
SWIDTH 333 0
DWIDTH 9 0
BBX 8 24 1 0
BITMAP
0C
18
18
10
00
FF
FF
06
06
0C
0C
0C
18
18
18
30
30
60
60
60
C0
C0
FF
FF
ENDCHAR
STARTCHAR 017A
ENCODING 378
SWIDTH 296 0
DWIDTH 8 0
BBX 7 20 1 0
BITMAP
18
18
10
30
00
00
FE
FE
0C
0C
18
18
30
30
20
60
60
C0
FE
FE
ENDCHAR
STARTCHAR 017B
ENCODING 379
SWIDTH 333 0
DWIDTH 9 0
BBX 8 24 1 0
BITMAP
10
10
00
00
00
FF
FF
06
06
0C
0C
0C
18
18
18
30
30
60
60
60
C0
C0
FF
FF
ENDCHAR
STARTCHAR 017C
ENCODING 380
SWIDTH 296 0
DWIDTH 8 0
BBX 7 20 1 0
BITMAP
30
30
00
00
00
00
FE
FE
0C
0C
18
18
30
30
20
60
60
C0
FE
FE
ENDCHAR
STARTCHAR 017D
ENCODING 381
SWIDTH 333 0
DWIDTH 9 0
BBX 8 24 1 0
BITMAP
46
64
3C
18
00
FF
FF
06
06
0C
0C
0C
18
18
18
30
30
60
60
60
C0
C0
FF
FF
ENDCHAR
STARTCHAR 017E
ENCODING 382
SWIDTH 296 0
DWIDTH 8 0
BBX 7 20 1 0
BITMAP
44
4C
28
38
00
00
FE
FE
0C
0C
18
18
30
30
20
60
60
C0
FE
FE
ENDCHAR
STARTCHAR 017F
ENCODING 383
SWIDTH 222 0
DWIDTH 6 0
BBX 6 20 0 0
BITMAP
1C
3C
30
30
30
30
F0
F0
30
30
30
30
30
30
30
30
30
30
30
30
ENDCHAR
STARTCHAR 018F
ENCODING 399
SWIDTH 407 0
DWIDTH 11 0
BBX 9 19 1 0
BITMAP
7E00
7F00
0180
0180
0180
0180
0180
0180
FF80
FF80
C180
C180
C180
C180
C180
C180
6180
7F00
3F00
ENDCHAR
STARTCHAR 0192
ENCODING 402
SWIDTH 296 0
DWIDTH 8 0
BBX 12 25 -3 -5
BITMAP
0070
00E0
0180
0180
0180
0100
07C0
07C0
0300
0300
0200
0600
0600
0600
0600
0C00
0C00
0C00
0C00
0800
1800
1800
1800
7000
E000
ENDCHAR
STARTCHAR 019D
ENCODING 413
SWIDTH 444 0
DWIDTH 12 0
BBX 10 24 0 -5
BITMAP
30C0
30C0
30C0
38C0
38C0
28C0
2CC0
2CC0
24C0
26C0
26C0
22C0
23C0
23C0
21C0
21C0
21C0
20C0
20C0
2000
2000
6000
E000
C000
ENDCHAR
STARTCHAR 01A0
ENCODING 416
SWIDTH 407 0
DWIDTH 11 0
BBX 10 22 1 0
BITMAP
0040
0040
0040
3FC0
7F00
6180
C180
C180
C180
C180
C180
C180
C180
C180
C180
C180
C180
C180
C180
6180
7F00
3E00
ENDCHAR
STARTCHAR 01A1
ENCODING 417
SWIDTH 370 0
DWIDTH 10 0
BBX 9 17 1 0
BITMAP
0080
0080
0080
3F80
7F00
C300
C300
C300
C300
C300
C300
C300
C300
C300
C300
7F00
3E00
ENDCHAR
STARTCHAR 01AF
ENCODING 431
SWIDTH 407 0
DWIDTH 11 0
BBX 11 22 1 0
BITMAP
0020
0020
0020
C1E0
C180
C180
C180
C180
C180
C180
C180
C180
C180
C180
C180
C180
C180
C180
4180
6180
7F00
3E00
ENDCHAR
STARTCHAR 01B0
ENCODING 432
SWIDTH 370 0
DWIDTH 10 0
BBX 10 17 1 0
BITMAP
0040
0040
0040
C3C0
C300
C300
C300
C300
C300
C300
C300
C300
C300
C300
C300
7F00
7B00
ENDCHAR
STARTCHAR 01C4
ENCODING 452
SWIDTH 740 0
DWIDTH 20 0
BBX 18 24 2 0
BITMAP
001980
000B00
000E00
000600
000000
FC3FC0
FE3FC0
860180
830180
830300
830300
830300
830600
830600
830600
830C00
830C00
831800
831800
831800
833000
863000
FE3FC0
FC3FC0
ENDCHAR
STARTCHAR 01C5
ENCODING 453
SWIDTH 703 0
DWIDTH 19 0
BBX 17 20 2 0
BITMAP
001100
FC1300
FE0A00
860E00
830000
830000
833F80
833F80
830300
830300
830600
830600
830400
830C00
830C00
831800
831800
863000
FE3F80
FC3F80
ENDCHAR
STARTCHAR 01C6
ENCODING 454
SWIDTH 703 0
DWIDTH 19 0
BBX 17 20 1 0
BITMAP
031100
031B00
030A00
030E00
030000
030000
7B3F80
7F3F80
C30180
C30300
C30300
C30600
C30600
C30C00
C30C00
C30800
C31800
C31800
7F3F80
7B3F80
ENDCHAR
STARTCHAR 01C7
ENCODING 455
SWIDTH 518 0
DWIDTH 14 0
BBX 10 19 2 0
BITMAP
80C0
80C0
80C0
80C0
80C0
80C0
80C0
80C0
80C0
80C0
80C0
80C0
80C0
80C0
80C0
80C0
80C0
FFC0
FF80
ENDCHAR
STARTCHAR 01C8
ENCODING 456
SWIDTH 481 0
DWIDTH 13 0
BBX 9 25 2 -5
BITMAP
0080
8080
8000
8000
8000
8000
8080
8080
8080
8080
8080
8080
8080
8080
8080
8080
8080
8080
FC80
FC80
0080
0080
0080
0380
0380
ENDCHAR
STARTCHAR 01C9
ENCODING 457
SWIDTH 333 0
DWIDTH 9 0
BBX 7 25 1 -5
BITMAP
C6
C6
C0
C0
C0
C0
C6
C6
C6
C6
C6
C6
C6
C6
C6
C6
C6
C6
C6
C6
06
06
06
1E
1C
ENDCHAR
STARTCHAR 01CA
ENCODING 458
SWIDTH 629 0
DWIDTH 17 0
BBX 14 19 2 0
BITMAP
C30C
C30C
C30C
E30C
E30C
A30C
B30C
B30C
930C
9B0C
9B0C
8B0C
8F0C
8F0C
870C
870C
870C
8338
8338
ENDCHAR
STARTCHAR 01CB
ENCODING 459
SWIDTH 592 0
DWIDTH 16 0
BBX 13 25 2 -5
BITMAP
0018
C318
C300
C300
E300
E300
A318
B318
B318
9318
9B18
9B18
8B18
8F18
8F18
8718
8718
8718
8318
8318
0018
0018
0018
0038
0030
ENDCHAR
STARTCHAR 01CC
ENCODING 460
SWIDTH 555 0
DWIDTH 15 0
BBX 13 25 1 -5
BITMAP
0018
0018
0000
0000
0000
0000
DE18
FF18
E318
C318
C318
C318
C318
C318
C318
C318
C318
C318
C318
C318
0018
0018
0018
0070
0070
ENDCHAR
STARTCHAR 01CD
ENCODING 461
SWIDTH 407 0
DWIDTH 11 0
BBX 11 24 0 0
BITMAP
1100
1B00
0E00
0E00
0000
0E00
0E00
0E00
1A00
1B00
1B00
1B00
1B00
3100
3180
3180
3180
3F80
7F80
60C0
60C0
60C0
60C0
C060
ENDCHAR
STARTCHAR 01CE
ENCODING 462
SWIDTH 370 0
DWIDTH 10 0
BBX 7 20 1 0
BITMAP
46
24
3C
18
00
00
FC
FE
06
02
02
02
7E
FE
C2
82
82
C6
FA
7A
ENDCHAR
STARTCHAR 01CF
ENCODING 463
SWIDTH 185 0
DWIDTH 5 0
BBX 5 24 0 0
BITMAP
88
D8
50
70
00
20
20
20
20
20
20
20
20
20
20
20
20
20
20
20
20
20
20
20
ENDCHAR
STARTCHAR 01D0
ENCODING 464
SWIDTH 185 0
DWIDTH 5 0
BBX 6 20 -1 0
BITMAP
C4
4C
68
38
00
00
30
30
30
30
30
30
30
30
30
30
30
30
30
30
ENDCHAR
STARTCHAR 01D1
ENCODING 465
SWIDTH 407 0
DWIDTH 11 0
BBX 9 24 1 0
BITMAP
2300
1600
1C00
0C00
0000
3E00
7F00
6180
C180
C180
C180
C180
C180
C180
C180
C180
C180
C180
C180
C180
C180
6180
7F00
3F00
ENDCHAR
STARTCHAR 01D2
ENCODING 466
SWIDTH 370 0
DWIDTH 10 0
BBX 8 20 1 0
BITMAP
62
24
3C
18
00
00
3E
7F
C3
C3
C3
C3
C3
C3
C3
C3
C3
C3
7F
3E
ENDCHAR
STARTCHAR 01D3
ENCODING 467
SWIDTH 407 0
DWIDTH 11 0
BBX 9 24 1 0
BITMAP
2300
1600
1C00
0C00
0000
C180
C180
C180
C180
C180
C180
C180
C180
C180
C180
C180
C180
C180
C180
C180
4180
6180
7F00
3E00
ENDCHAR
STARTCHAR 01D4
ENCODING 468
SWIDTH 370 0
DWIDTH 10 0
BBX 8 20 1 0
BITMAP
62
26
3C
18
00
00
C3
C3
C3
C3
C3
C3
C3
C3
C3
C3
C3
C3
7F
7B
ENDCHAR
STARTCHAR 01D5
ENCODING 469
SWIDTH 407 0
DWIDTH 11 0
BBX 9 28 1 0
BITMAP
1E00
1E00
0000
0000
2300
2300
0000
0000
0000
C180
C180
C180
C180
C180
C180
C180
C180
C180
C180
C180
C180
C180
C180
C180
4180
6180
7F00
3E00
ENDCHAR
STARTCHAR 01D6
ENCODING 470
SWIDTH 370 0
DWIDTH 10 0
BBX 8 24 1 0
BITMAP
3E
3E
00
00
62
62
00
00
00
00
C3
C3
C3
C3
C3
C3
C3
C3
C3
C3
C3
C3
7F
7B
ENDCHAR
STARTCHAR 01D7
ENCODING 471
SWIDTH 407 0
DWIDTH 11 0
BBX 9 27 1 0
BITMAP
0600
0400
0C00
2F00
2300
0000
0000
0000
C180
C180
C180
C180
C180
C180
C180
C180
C180
C180
C180
C180
C180
C180
C180
4180
6180
7F00
3E00
ENDCHAR
STARTCHAR 01D8
ENCODING 472
SWIDTH 370 0
DWIDTH 10 0
BBX 8 24 1 0
BITMAP
0C
0C
08
08
62
62
00
00
00
00
C3
C3
C3
C3
C3
C3
C3
C3
C3
C3
C3
C3
7F
7B
ENDCHAR
STARTCHAR 01D9
ENCODING 473
SWIDTH 407 0
DWIDTH 11 0
BBX 9 27 1 0
BITMAP
3300
1600
1C00
2F00
2300
0000
0000
0000
C180
C180
C180
C180
C180
C180
C180
C180
C180
C180
C180
C180
C180
C180
C180
4180
6180
7F00
3E00
ENDCHAR
STARTCHAR 01DA
ENCODING 474
SWIDTH 370 0
DWIDTH 10 0
BBX 8 24 1 0
BITMAP
62
26
34
1C
62
62
00
00
00
00
C3
C3
C3
C3
C3
C3
C3
C3
C3
C3
C3
C3
7F
7B
ENDCHAR
STARTCHAR 01DB
ENCODING 475
SWIDTH 407 0
DWIDTH 11 0
BBX 9 27 1 0
BITMAP
1800
1800
0800
2F00
2300
0000
0000
0000
C180
C180
C180
C180
C180
C180
C180
C180
C180
C180
C180
C180
C180
C180
C180
4180
6180
7F00
3E00
ENDCHAR
STARTCHAR 01DC
ENCODING 476
SWIDTH 370 0
DWIDTH 10 0
BBX 8 24 1 0
BITMAP
30
10
18
18
62
62
00
00
00
00
C3
C3
C3
C3
C3
C3
C3
C3
C3
C3
C3
C3
7F
7B
ENDCHAR
STARTCHAR 01E6
ENCODING 486
SWIDTH 407 0
DWIDTH 11 0
BBX 9 24 1 0
BITMAP
2200
3400
1C00
1800
0000
3F80
7F80
6000
4000
C000
C000
C000
C000
C000
C780
C780
C180
C180
C180
C180
4180
6180
7F80
3F80
ENDCHAR
STARTCHAR 01E7
ENCODING 487
SWIDTH 370 0
DWIDTH 10 0
BBX 8 25 1 -5
BITMAP
62
26
3C
18
00
00
7B
7F
C3
C3
C3
C3
C3
C3
C3
C3
C3
C3
7F
7B
03
03
03
FE
FC
ENDCHAR
STARTCHAR 01EA
ENCODING 490
SWIDTH 407 0
DWIDTH 11 0
BBX 9 24 1 -5
BITMAP
3E00
7F00
6180
C180
C180
C180
C180
C180
C180
C180
C180
C180
C180
C180
C180
C180
6180
7F00
3E00
0400
0400
0C00
0E00
0600
ENDCHAR
STARTCHAR 01EB
ENCODING 491
SWIDTH 370 0
DWIDTH 10 0
BBX 8 19 1 -5
BITMAP
3E
7F
C3
C3
C3
C3
C3
C3
C3
C3
C3
C3
7E
3C
04
08
08
0E
0E
ENDCHAR
STARTCHAR 01F1
ENCODING 497
SWIDTH 740 0
DWIDTH 20 0
BBX 18 19 2 0
BITMAP
FC3FC0
FE3FC0
860180
830180
830300
830300
830300
830600
830600
830600
830C00
830C00
831800
831800
831800
833000
863000
FE3FC0
FC3FC0
ENDCHAR
STARTCHAR 01F2
ENCODING 498
SWIDTH 703 0
DWIDTH 19 0
BBX 17 19 2 0
BITMAP
FC0000
FE0000
860000
830000
830000
833F80
833F80
830300
830300
830600
830600
830400
830C00
830C00
831800
831800
863000
FE3F80
FC3F80
ENDCHAR
STARTCHAR 01F3
ENCODING 499
SWIDTH 703 0
DWIDTH 19 0
BBX 17 20 1 0
BITMAP
030000
030000
030000
030000
030000
030000
7B3F80
7F3F80
C30180
C30300
C30300
C30600
C30600
C30C00
C30C00
C30800
C31800
C31800
7F3F80
7B3F80
ENDCHAR
STARTCHAR 01F4
ENCODING 500
SWIDTH 407 0
DWIDTH 11 0
BBX 9 24 1 0
BITMAP
0C00
0C00
0C00
0800
0000
3F80
7F80
6000
4000
C000
C000
C000
C000
C000
C780
C780
C180
C180
C180
C180
4180
6180
7F80
3F80
ENDCHAR
STARTCHAR 01F5
ENCODING 501
SWIDTH 370 0
DWIDTH 10 0
BBX 8 25 1 -5
BITMAP
0C
0C
08
18
00
00
7B
7F
C3
C3
C3
C3
C3
C3
C3
C3
C3
C3
7F
7B
03
03
03
FE
FC
ENDCHAR
STARTCHAR 01FA
ENCODING 506
SWIDTH 407 0
DWIDTH 11 0
BBX 11 29 0 0
BITMAP
0300
0600
0600
0400
0000
0400
1F00
1100
1100
1B00
1F00
0E00
0E00
0A00
1B00
1B00
1B00
1B00
1100
3180
3180
3180
3F80
3F80
60C0
60C0
60C0
60C0
C060
ENDCHAR
STARTCHAR 01FB
ENCODING 507
SWIDTH 370 0
DWIDTH 10 0
BBX 7 26 1 0
BITMAP
0C
08
08
18
3C
7C
64
7C
3C
00
00
00
FC
FE
06
02
02
02
7E
FE
C2
82
82
C6
FA
7A
ENDCHAR
STARTCHAR 01FC
ENCODING 508
SWIDTH 555 0
DWIDTH 15 0
BBX 14 24 0 0
BITMAP
0080
0180
0180
0100
0000
07FC
07FC
0F00
0F00
0F00
1B00
1900
1980
1980
31F8
31F8
3180
3F80
7F80
6080
60C0
40C0
C0FC
C0FC
ENDCHAR
STARTCHAR 01FD
ENCODING 509
SWIDTH 592 0
DWIDTH 16 0
BBX 14 20 1 0
BITMAP
0180
0100
0300
0300
0000
0000
FCF0
FFF8
0718
0308
0308
020C
7FFC
FFFC
C200
8300
8300
C700
FDF8
78F8
ENDCHAR
STARTCHAR 01FE
ENCODING 510
SWIDTH 407 0
DWIDTH 11 0
BBX 9 25 1 -1
BITMAP
0400
0C00
0C00
0800
0180
3F80
7F00
6180
C180
C180
C180
C180
C180
C180
C180
C180
C180
C180
C180
C180
C180
6180
7F00
7F00
C000
ENDCHAR
STARTCHAR 01FF
ENCODING 511
SWIDTH 370 0
DWIDTH 10 0
BBX 8 21 1 -1
BITMAP
0C
0C
08
18
03
03
3E
7F
C3
C3
C3
C3
C3
C3
C3
C3
C3
C3
FF
7E
C0
ENDCHAR
STARTCHAR 0200
ENCODING 512
SWIDTH 407 0
DWIDTH 11 0
BBX 11 24 0 0
BITMAP
3600
1200
1200
1B00
0000
0E00
0E00
0E00
1A00
1B00
1B00
1B00
1B00
3100
3180
3180
3180
3F80
7F80
60C0
60C0
60C0
60C0
C060
ENDCHAR
STARTCHAR 0201
ENCODING 513
SWIDTH 370 0
DWIDTH 10 0
BBX 7 20 1 0
BITMAP
48
6C
24
00
00
00
FC
FE
06
02
02
02
7E
FE
C2
82
82
C6
FA
7A
ENDCHAR
STARTCHAR 0202
ENCODING 514
SWIDTH 407 0
DWIDTH 11 0
BBX 11 24 0 0
BITMAP
1F00
1100
1100
1100
0000
0E00
0E00
0E00
1A00
1B00
1B00
1B00
1B00
3100
3180
3180
3180
3F80
7F80
60C0
60C0
60C0
60C0
C060
ENDCHAR
STARTCHAR 0203
ENCODING 515
SWIDTH 370 0
DWIDTH 10 0
BBX 7 21 1 0
BITMAP
10
3C
66
66
00
00
00
FC
FE
06
02
02
02
7E
FE
C2
82
82
C6
FA
7A
ENDCHAR
STARTCHAR 0204
ENCODING 516
SWIDTH 333 0
DWIDTH 9 0
BBX 7 24 2 0
BITMAP
90
D8
58
48
00
FE
FE
80
80
80
80
80
80
80
FC
FC
80
80
80
80
80
80
FE
FE
ENDCHAR
STARTCHAR 0205
ENCODING 517
SWIDTH 370 0
DWIDTH 10 0
BBX 8 20 1 0
BITMAP
48
6C
24
00
00
00
3C
7E
C3
C3
C3
C3
FF
FF
C0
C0
C0
C0
7F
3F
ENDCHAR
STARTCHAR 0206
ENCODING 518
SWIDTH 333 0
DWIDTH 9 0
BBX 7 24 2 0
BITMAP
78
CC
CC
CC
00
FE
FE
80
80
80
80
80
80
80
FC
FC
80
80
80
80
80
80
FE
FE
ENDCHAR
STARTCHAR 0207
ENCODING 519
SWIDTH 370 0
DWIDTH 10 0
BBX 8 21 1 0
BITMAP
10
3C
66
66
00
00
00
3C
7E
C3
C3
C3
C3
FF
FF
C0
C0
C0
C0
7F
3F
ENDCHAR
STARTCHAR 0208
ENCODING 520
SWIDTH 185 0
DWIDTH 5 0
BBX 6 24 -1 0
BITMAP
D8
48
48
6C
00
10
10
10
10
10
10
10
10
10
10
10
10
10
10
10
10
10
10
10
ENDCHAR
STARTCHAR 0209
ENCODING 521
SWIDTH 185 0
DWIDTH 5 0
BBX 5 20 -1 0
BITMAP
D8
48
48
00
00
00
30
30
30
30
30
30
30
30
30
30
30
30
30
30
ENDCHAR
STARTCHAR 020A
ENCODING 522
SWIDTH 185 0
DWIDTH 5 0
BBX 5 24 0 0
BITMAP
78
88
88
88
00
20
20
20
20
20
20
20
20
20
20
20
20
20
20
20
20
20
20
20
ENDCHAR
STARTCHAR 020B
ENCODING 523
SWIDTH 185 0
DWIDTH 5 0
BBX 5 21 0 0
BITMAP
20
F8
98
88
00
00
00
60
60
60
60
60
60
60
60
60
60
60
60
60
60
ENDCHAR
STARTCHAR 020C
ENCODING 524
SWIDTH 407 0
DWIDTH 11 0
BBX 9 24 1 0
BITMAP
6C00
2400
3600
1200
0000
3E00
7F00
6180
C180
C180
C180
C180
C180
C180
C180
C180
C180
C180
C180
C180
C180
6180
7F00
3F00
ENDCHAR
STARTCHAR 020D
ENCODING 525
SWIDTH 370 0
DWIDTH 10 0
BBX 8 20 1 0
BITMAP
68
6C
24
00
00
00
3E
7F
C3
C3
C3
C3
C3
C3
C3
C3
C3
C3
7F
3E
ENDCHAR
STARTCHAR 020E
ENCODING 526
SWIDTH 407 0
DWIDTH 11 0
BBX 9 24 1 0
BITMAP
1E00
3200
2200
2200
0000
3E00
7F00
6180
C180
C180
C180
C180
C180
C180
C180
C180
C180
C180
C180
C180
C180
6180
7F00
3F00
ENDCHAR
STARTCHAR 020F
ENCODING 527
SWIDTH 370 0
DWIDTH 10 0
BBX 8 21 1 0
BITMAP
08
3C
66
66
00
00
00
3E
7F
C3
C3
C3
C3
C3
C3
C3
C3
C3
C3
7F
3E
ENDCHAR
STARTCHAR 0210
ENCODING 528
SWIDTH 407 0
DWIDTH 11 0
BBX 8 24 2 0
BITMAP
D8
48
48
6C
00
FC
FE
83
83
83
83
83
83
83
86
FE
FC
84
86
86
86
83
83
83
ENDCHAR
STARTCHAR 0211
ENCODING 529
SWIDTH 259 0
DWIDTH 7 0
BBX 6 20 0 0
BITMAP
D8
48
48
00
00
00
6C
6C
70
70
60
60
60
60
60
60
60
60
60
60
ENDCHAR
STARTCHAR 0212
ENCODING 530
SWIDTH 407 0
DWIDTH 11 0
BBX 8 24 2 0
BITMAP
7C
44
44
44
00
FC
FE
83
83
83
83
83
83
83
86
FE
FC
84
86
86
86
83
83
83
ENDCHAR
STARTCHAR 0213
ENCODING 531
SWIDTH 259 0
DWIDTH 7 0
BBX 5 21 1 0
BITMAP
20
F8
98
88
00
00
00
D8
D8
E0
E0
C0
C0
C0
C0
C0
C0
C0
C0
C0
C0
ENDCHAR
STARTCHAR 0214
ENCODING 532
SWIDTH 407 0
DWIDTH 11 0
BBX 9 24 1 0
BITMAP
6C00
2400
3600
1200
0000
C180
C180
C180
C180
C180
C180
C180
C180
C180
C180
C180
C180
C180
C180
C180
4180
6180
7F00
3E00
ENDCHAR
STARTCHAR 0215
ENCODING 533
SWIDTH 370 0
DWIDTH 10 0
BBX 8 20 1 0
BITMAP
6C
2C
24
00
00
00
C3
C3
C3
C3
C3
C3
C3
C3
C3
C3
C3
C3
7F
7B
ENDCHAR
STARTCHAR 0216
ENCODING 534
SWIDTH 407 0
DWIDTH 11 0
BBX 9 24 1 0
BITMAP
1E00
3200
2200
2200
0000
C180
C180
C180
C180
C180
C180
C180
C180
C180
C180
C180
C180
C180
C180
C180
4180
6180
7F00
3E00
ENDCHAR
STARTCHAR 0217
ENCODING 535
SWIDTH 370 0
DWIDTH 10 0
BBX 8 21 1 0
BITMAP
18
3E
26
62
00
00
00
C3
C3
C3
C3
C3
C3
C3
C3
C3
C3
C3
C3
7F
7B
ENDCHAR
STARTCHAR 0218
ENCODING 536
SWIDTH 370 0
DWIDTH 10 0
BBX 8 26 1 -7
BITMAP
3E
7E
C0
C0
C0
C0
C0
C0
F8
7E
07
03
03
03
03
03
03
FE
FC
00
00
18
18
08
18
18
ENDCHAR
STARTCHAR 0219
ENCODING 537
SWIDTH 333 0
DWIDTH 9 0
BBX 7 21 1 -7
BITMAP
7C
FC
C0
C0
C0
C0
FC
3C
06
06
06
06
FC
F8
00
00
18
18
18
30
30
ENDCHAR
STARTCHAR 021A
ENCODING 538
SWIDTH 333 0
DWIDTH 9 0
BBX 9 26 0 -7
BITMAP
FF80
FF80
0800
0800
0800
0800
0800
0800
0800
0800
0800
0800
0800
0800
0800
0800
0800
0800
0800
0000
0000
0C00
0C00
0400
1C00
1800
ENDCHAR
STARTCHAR 021B
ENCODING 539
SWIDTH 222 0
DWIDTH 6 0
BBX 6 25 0 -7
BITMAP
30
30
30
30
FC
FC
30
30
30
30
30
30
30
30
30
30
30
30
00
00
30
30
10
30
30
ENDCHAR
STARTCHAR 0232
ENCODING 562
SWIDTH 370 0
DWIDTH 10 0
BBX 10 24 0 0
BITMAP
1E00
1E00
0000
0000
0000
C0C0
C180
6180
6100
6300
3300
3200
3600
1600
1C00
1C00
0C00
0C00
0C00
0C00
0C00
0C00
0C00
0C00
ENDCHAR
STARTCHAR 0233
ENCODING 563
SWIDTH 370 0
DWIDTH 10 0
BBX 8 25 1 -5
BITMAP
3E
3E
00
00
00
00
C3
C3
C3
C3
C3
C3
C3
C3
C3
C3
C3
C3
7F
7B
03
03
03
7E
7C
ENDCHAR
STARTCHAR 0237
ENCODING 567
SWIDTH 185 0
DWIDTH 5 0
BBX 3 19 0 -5
BITMAP
60
60
60
60
60
60
60
60
60
60
60
60
60
60
60
60
60
E0
C0
ENDCHAR
STARTCHAR 0259
ENCODING 601
SWIDTH 370 0
DWIDTH 10 0
BBX 8 14 1 0
BITMAP
FC
FE
03
03
03
03
FF
FF
C3
C3
C3
C3
7E
7C
ENDCHAR
STARTCHAR 0272
ENCODING 626
SWIDTH 370 0
DWIDTH 10 0
BBX 9 19 0 -5
BITMAP
6F00
7F80
7180
6180
6180
6180
6180
6180
6180
6180
6180
6180
6180
6180
6000
6000
6000
E000
C000
ENDCHAR
STARTCHAR 02BC
ENCODING 700
SWIDTH 111 0
DWIDTH 3 0
BBX 3 5 0 15
BITMAP
60
60
60
E0
C0
ENDCHAR
STARTCHAR 02C6
ENCODING 710
SWIDTH 222 0
DWIDTH 6 0
BBX 6 4 0 16
BITMAP
30
70
58
CC
ENDCHAR
STARTCHAR 02C7
ENCODING 711
SWIDTH 222 0
DWIDTH 6 0
BBX 6 4 0 16
BITMAP
8C
C8
78
30
ENDCHAR
STARTCHAR 02C9
ENCODING 713
SWIDTH 296 0
DWIDTH 8 0
BBX 5 2 1 18
BITMAP
F8
F8
ENDCHAR
STARTCHAR 02D8
ENCODING 728
SWIDTH 222 0
DWIDTH 6 0
BBX 6 4 0 16
BITMAP
8C
88
F8
78
ENDCHAR
STARTCHAR 02D9
ENCODING 729
SWIDTH 74 0
DWIDTH 2 0
BBX 2 2 0 18
BITMAP
C0
C0
ENDCHAR
STARTCHAR 02DA
ENCODING 730
SWIDTH 185 0
DWIDTH 5 0
BBX 5 5 0 17
BITMAP
F8
F8
88
F8
F8
ENDCHAR
STARTCHAR 02DB
ENCODING 731
SWIDTH 111 0
DWIDTH 3 0
BBX 3 5 0 -5
BITMAP
60
C0
C0
C0
E0
ENDCHAR
STARTCHAR 02DC
ENCODING 732
SWIDTH 259 0
DWIDTH 7 0
BBX 7 4 0 17
BITMAP
46
F6
9C
80
ENDCHAR
STARTCHAR 02DD
ENCODING 733
SWIDTH 222 0
DWIDTH 6 0
BBX 6 3 0 17
BITMAP
6C
48
D8
ENDCHAR
STARTCHAR 0300
ENCODING 768
SWIDTH 0 0
DWIDTH 0 0
BBX 3 4 -3 16
BITMAP
C0
40
60
20
ENDCHAR
STARTCHAR 0301
ENCODING 769
SWIDTH 0 0
DWIDTH 0 0
BBX 3 4 -3 16
BITMAP
60
60
40
C0
ENDCHAR
STARTCHAR 0302
ENCODING 770
SWIDTH 0 0
DWIDTH 0 0
BBX 6 4 -6 16
BITMAP
30
38
68
CC
ENDCHAR
STARTCHAR 0303
ENCODING 771
SWIDTH 0 0
DWIDTH 0 0
BBX 7 4 -7 17
BITMAP
42
7A
DE
C0
ENDCHAR
STARTCHAR 0304
ENCODING 772
SWIDTH 0 0
DWIDTH 0 0
BBX 5 2 -6 18
BITMAP
F8
F8
ENDCHAR
STARTCHAR 0306
ENCODING 774
SWIDTH 0 0
DWIDTH 0 0
BBX 6 4 -6 16
BITMAP
C4
44
7C
78
ENDCHAR
STARTCHAR 0307
ENCODING 775
SWIDTH 0 0
DWIDTH 0 0
BBX 2 2 -2 18
BITMAP
C0
C0
ENDCHAR
STARTCHAR 0308
ENCODING 776
SWIDTH 0 0
DWIDTH 0 0
BBX 6 2 -7 18
BITMAP
C4
C4
ENDCHAR
STARTCHAR 0309
ENCODING 777
SWIDTH 0 0
DWIDTH 0 0
BBX 5 5 -5 17
BITMAP
40
F8
18
18
60
ENDCHAR
STARTCHAR 030A
ENCODING 778
SWIDTH 0 0
DWIDTH 0 0
BBX 5 5 -5 17
BITMAP
F8
F8
88
F8
F8
ENDCHAR
STARTCHAR 030B
ENCODING 779
SWIDTH 0 0
DWIDTH 0 0
BBX 6 3 -6 17
BITMAP
6C
48
D8
ENDCHAR
STARTCHAR 030C
ENCODING 780
SWIDTH 0 0
DWIDTH 0 0
BBX 6 4 -6 16
BITMAP
C4
4C
78
30
ENDCHAR
STARTCHAR 030F
ENCODING 783
SWIDTH 0 0
DWIDTH 0 0
BBX 6 3 -6 17
BITMAP
D8
48
4C
ENDCHAR
STARTCHAR 0311
ENCODING 785
SWIDTH 0 0
DWIDTH 0 0
BBX 6 4 -6 17
BITMAP
10
7C
4C
C4
ENDCHAR
STARTCHAR 0312
ENCODING 786
SWIDTH 0 0
DWIDTH 0 0
BBX 2 5 -10 16
BITMAP
C0
C0
80
C0
C0
ENDCHAR
STARTCHAR 031B
ENCODING 795
SWIDTH 0 0
DWIDTH 0 0
BBX 4 4 -5 13
BITMAP
30
30
F0
E0
ENDCHAR
STARTCHAR 0323
ENCODING 803
SWIDTH 0 0
DWIDTH 0 0
BBX 2 2 -3 -4
BITMAP
C0
C0
ENDCHAR
STARTCHAR 0326
ENCODING 806
SWIDTH 0 0
DWIDTH 0 0
BBX 2 5 -3 -7
BITMAP
C0
C0
40
C0
80
ENDCHAR
STARTCHAR 0327
ENCODING 807
SWIDTH 0 0
DWIDTH 0 0
BBX 3 5 -3 -5
BITMAP
60
40
40
C0
C0
ENDCHAR
STARTCHAR 0328
ENCODING 808
SWIDTH 0 0
DWIDTH 0 0
BBX 3 5 -3 -5
BITMAP
60
C0
80
C0
E0
ENDCHAR
STARTCHAR 0335
ENCODING 821
SWIDTH 0 0
DWIDTH 0 0
BBX 6 2 -6 9
BITMAP
FC
FC
ENDCHAR
STARTCHAR 0336
ENCODING 822
SWIDTH 0 0
DWIDTH 0 0
BBX 8 2 -10 13
BITMAP
FF
FF
ENDCHAR
STARTCHAR 0394
ENCODING 916
SWIDTH 407 0
DWIDTH 11 0
BBX 11 19 0 0
BITMAP
0E00
0E00
0E00
0A00
1B00
1B00
1B00
1B00
1100
3180
3180
3180
3180
2080
60C0
60C0
60C0
7FC0
FFE0
ENDCHAR
STARTCHAR 03A9
ENCODING 937
SWIDTH 444 0
DWIDTH 12 0
BBX 9 19 1 0
BITMAP
1E00
7F00
6180
4180
C180
C080
C080
C080
C080
C080
C080
C080
C080
C180
4180
4180
6100
B680
F780
ENDCHAR
STARTCHAR 03BC
ENCODING 956
SWIDTH 407 0
DWIDTH 11 0
BBX 8 19 1 -5
BITMAP
C3
C3
C3
C3
C3
C3
C3
C3
C3
C3
C3
C3
F5
FD
C0
C0
C0
C0
C0
ENDCHAR
STARTCHAR 03C0
ENCODING 960
SWIDTH 370 0
DWIDTH 10 0
BBX 8 14 1 0
BITMAP
FF
FF
C3
C3
C3
C3
C3
C3
C3
C3
C3
C3
C3
C3
ENDCHAR
STARTCHAR 1E0C
ENCODING 7692
SWIDTH 407 0
DWIDTH 11 0
BBX 8 23 2 -4
BITMAP
FC
FE
86
83
83
83
83
83
83
83
83
83
83
83
83
83
86
FE
FC
00
00
18
18
ENDCHAR
STARTCHAR 1E0D
ENCODING 7693
SWIDTH 370 0
DWIDTH 10 0
BBX 8 24 1 -4
BITMAP
03
03
03
03
03
03
7B
7F
C3
C3
C3
C3
C3
C3
C3
C3
C3
C3
7F
7B
00
00
18
18
ENDCHAR
STARTCHAR 1E24
ENCODING 7716
SWIDTH 444 0
DWIDTH 12 0
BBX 8 23 2 -4
BITMAP
83
83
83
83
83
83
83
83
83
FF
FF
83
83
83
83
83
83
83
83
00
00
18
18
ENDCHAR
STARTCHAR 1E25
ENCODING 7717
SWIDTH 370 0
DWIDTH 10 0
BBX 8 24 1 -4
BITMAP
C0
C0
C0
C0
C0
C0
DE
FF
E3
C3
C3
C3
C3
C3
C3
C3
C3
C3
C3
C3
00
00
18
18
ENDCHAR
STARTCHAR 1E44
ENCODING 7748
SWIDTH 444 0
DWIDTH 12 0
BBX 8 24 2 0
BITMAP
18
18
00
00
00
C3
C3
C3
E3
E3
A3
B3
B3
93
9B
9B
8B
8F
8F
87
87
87
83
83
ENDCHAR
STARTCHAR 1E45
ENCODING 7749
SWIDTH 370 0
DWIDTH 10 0
BBX 8 20 1 0
BITMAP
18
18
00
00
00
00
DE
FF
E3
C3
C3
C3
C3
C3
C3
C3
C3
C3
C3
C3
ENDCHAR
STARTCHAR 1E5A
ENCODING 7770
SWIDTH 407 0
DWIDTH 11 0
BBX 8 23 2 -4
BITMAP
FC
FE
83
83
83
83
83
83
83
86
FE
FC
84
86
86
86
83
83
83
00
00
18
18
ENDCHAR
STARTCHAR 1E5B
ENCODING 7771
SWIDTH 259 0
DWIDTH 7 0
BBX 5 18 1 -4
BITMAP
D8
D8
E0
E0
C0
C0
C0
C0
C0
C0
C0
C0
C0
C0
00
00
C0
C0
ENDCHAR
STARTCHAR 1E62
ENCODING 7778
SWIDTH 370 0
DWIDTH 10 0
BBX 8 23 1 -4
BITMAP
3E
7E
C0
C0
C0
C0
C0
C0
F8
7E
07
03
03
03
03
03
03
FE
FC
00
00
18
18
ENDCHAR
STARTCHAR 1E63
ENCODING 7779
SWIDTH 333 0
DWIDTH 9 0
BBX 7 18 1 -4
BITMAP
7C
FC
C0
C0
C0
C0
FC
3C
06
06
06
06
FC
F8
00
00
30
30
ENDCHAR
STARTCHAR 1E6C
ENCODING 7788
SWIDTH 333 0
DWIDTH 9 0
BBX 9 23 0 -4
BITMAP
FF80
FF80
0800
0800
0800
0800
0800
0800
0800
0800
0800
0800
0800
0800
0800
0800
0800
0800
0800
0000
0000
0C00
0C00
ENDCHAR
STARTCHAR 1E6D
ENCODING 7789
SWIDTH 222 0
DWIDTH 6 0
BBX 6 22 0 -4
BITMAP
30
30
30
30
FC
FC
30
30
30
30
30
30
30
30
30
30
30
30
00
00
30
30
ENDCHAR
STARTCHAR 1E80
ENCODING 7808
SWIDTH 592 0
DWIDTH 16 0
BBX 15 24 0 0
BITMAP
0300
0300
0100
0180
0000
C186
C386
4386
6386
63C6
62C6
62C4
62C4
664C
264C
266C
366C
346C
3468
3428
3C28
1C38
1C38
1838
ENDCHAR
STARTCHAR 1E81
ENCODING 7809
SWIDTH 518 0
DWIDTH 14 0
BBX 14 20 0 0
BITMAP
0600
0200
0200
0300
0000
0000
C30C
4308
6308
6398
6798
6798
2490
2490
3490
34F0
3CF0
1C70
1860
1860
ENDCHAR
STARTCHAR 1E82
ENCODING 7810
SWIDTH 592 0
DWIDTH 16 0
BBX 15 24 0 0
BITMAP
00C0
0080
0180
0180
0000
C186
C386
4386
6386
63C6
62C6
62C4
62C4
664C
264C
266C
366C
346C
3468
3428
3C28
1C38
1C38
1838
ENDCHAR
STARTCHAR 1E83
ENCODING 7811
SWIDTH 518 0
DWIDTH 14 0
BBX 14 20 0 0
BITMAP
0180
0180
0100
0300
0000
0000
C30C
4308
6308
6398
6798
6798
2490
2490
3490
34F0
3CF0
1C70
1860
1860
ENDCHAR
STARTCHAR 1E84
ENCODING 7812
SWIDTH 592 0
DWIDTH 16 0
BBX 15 24 0 0
BITMAP
0460
0460
0000
0000
0000
C186
C386
4386
6386
63C6
62C6
62C4
62C4
664C
264C
266C
366C
346C
3468
3428
3C28
1C38
1C38
1838
ENDCHAR
STARTCHAR 1E85
ENCODING 7813
SWIDTH 518 0
DWIDTH 14 0
BBX 14 20 0 0
BITMAP
0CC0
0CC0
0000
0000
0000
0000
C30C
4308
6308
6398
6798
6798
2490
2490
3490
34F0
3CF0
1C70
1860
1860
ENDCHAR
STARTCHAR 1E92
ENCODING 7826
SWIDTH 333 0
DWIDTH 9 0
BBX 8 23 1 -4
BITMAP
FF
FF
06
06
0C
0C
0C
18
18
18
30
30
60
60
60
C0
C0
FF
FF
00
00
18
18
ENDCHAR
STARTCHAR 1E93
ENCODING 7827
SWIDTH 296 0
DWIDTH 8 0
BBX 7 18 1 -4
BITMAP
FE
FE
0C
0C
18
18
30
30
20
60
60
C0
FE
FE
00
00
30
30
ENDCHAR
STARTCHAR 1E9E
ENCODING 7838
SWIDTH 481 0
DWIDTH 13 0
BBX 11 19 1 0
BITMAP
3F80
7FC0
60C0
60C0
4180
C180
C300
C300
C600
C7C0
C0C0
C060
C060
C060
C060
C060
C060
CFC0
CF80
ENDCHAR
STARTCHAR 1EA0
ENCODING 7840
SWIDTH 407 0
DWIDTH 11 0
BBX 11 23 0 -4
BITMAP
0E00
0E00
0E00
1A00
1B00
1B00
1B00
1B00
3100
3180
3180
3180
3F80
7F80
60C0
60C0
60C0
60C0
C060
0000
0000
0E00
0E00
ENDCHAR
STARTCHAR 1EA1
ENCODING 7841
SWIDTH 370 0
DWIDTH 10 0
BBX 7 18 1 -4
BITMAP
FC
FE
06
02
02
02
7E
FE
C2
82
82
C6
FA
7A
00
00
18
18
ENDCHAR
STARTCHAR 1EA2
ENCODING 7842
SWIDTH 407 0
DWIDTH 11 0
BBX 11 25 0 0
BITMAP
1E00
1F00
0100
0700
0C00
0000
0E00
0E00
0E00
1A00
1B00
1B00
1B00
1B00
3100
3180
3180
3180
3F80
7F80
60C0
60C0
60C0
60C0
C060
ENDCHAR
STARTCHAR 1EA3
ENCODING 7843
SWIDTH 370 0
DWIDTH 10 0
BBX 7 22 1 0
BITMAP
10
7C
04
04
18
00
00
00
FC
FE
06
02
02
02
7E
FE
C2
82
82
C6
FA
7A
ENDCHAR
STARTCHAR 1EA4
ENCODING 7844
SWIDTH 407 0
DWIDTH 11 0
BBX 11 27 0 0
BITMAP
00C0
0180
0180
0100
0C00
0E00
1B00
1100
0E00
0E00
0E00
1A00
1B00
1B00
1B00
1B00
3100
3180
3180
3180
3F80
7F80
60C0
60C0
60C0
60C0
C060
ENDCHAR
STARTCHAR 1EA5
ENCODING 7845
SWIDTH 370 0
DWIDTH 10 0
BBX 8 24 1 0
BITMAP
03
03
02
06
18
38
2C
66
00
00
FC
FE
06
02
02
02
7E
FE
C2
82
82
C6
FA
7A
ENDCHAR
STARTCHAR 1EA6
ENCODING 7846
SWIDTH 407 0
DWIDTH 11 0
BBX 11 27 0 0
BITMAP
0600
0300
0300
0100
0C00
0E00
1A00
1100
0E00
0E00
0E00
1A00
1B00
1B00
1B00
1B00
3100
3180
3180
3180
3F80
7F80
60C0
60C0
60C0
60C0
C060
ENDCHAR
STARTCHAR 1EA7
ENCODING 7847
SWIDTH 370 0
DWIDTH 10 0
BBX 7 24 1 0
BITMAP
0C
0C
04
06
18
38
2C
66
00
00
FC
FE
06
02
02
02
7E
FE
C2
82
82
C6
FA
7A
ENDCHAR
STARTCHAR 1EA8
ENCODING 7848
SWIDTH 407 0
DWIDTH 11 0
BBX 11 29 0 0
BITMAP
0100
07C0
0040
0040
0180
0000
0C00
0E00
1B00
1100
0E00
0E00
0E00
1A00
1B00
1B00
1B00
1B00
3100
3180
3180
3180
3F80
7F80
60C0
60C0
60C0
60C0
C060
ENDCHAR
STARTCHAR 1EA9
ENCODING 7849
SWIDTH 370 0
DWIDTH 10 0
BBX 9 26 1 0
BITMAP
0600
0F80
0180
0180
0600
0000
1800
3800
2C00
6600
0000
0000
FC00
FE00
0600
0200
0200
0200
7E00
FE00
C200
8200
8200
C600
FA00
7A00
ENDCHAR
STARTCHAR 1EAA
ENCODING 7850
SWIDTH 407 0
DWIDTH 11 0
BBX 11 29 0 0
BITMAP
1080
3D80
2780
2000
0000
0000
0C00
0E00
1B00
1100
0E00
0E00
0E00
1A00
1B00
1B00
1B00
1B00
3100
3180
3180
3180
3F80
7F80
60C0
60C0
60C0
60C0
C060
ENDCHAR
STARTCHAR 1EAB
ENCODING 7851
SWIDTH 370 0
DWIDTH 10 0
BBX 7 26 1 0
BITMAP
22
7A
4E
40
00
00
18
38
2C
66
00
00
FC
FE
06
02
02
02
7E
FE
C2
82
82
C6
FA
7A
ENDCHAR
STARTCHAR 1EAC
ENCODING 7852
SWIDTH 407 0
DWIDTH 11 0
BBX 11 28 0 -4
BITMAP
0E00
0A00
1B00
1100
0000
0E00
0E00
0E00
1A00
1B00
1B00
1B00
1B00
3100
3180
3180
3180
3F80
7F80
60C0
60C0
60C0
60C0
C060
0000
0000
0E00
0E00
ENDCHAR
STARTCHAR 1EAD
ENCODING 7853
SWIDTH 370 0
DWIDTH 10 0
BBX 7 24 1 -4
BITMAP
18
38
2C
66
00
00
FC
FE
06
02
02
02
7E
FE
C2
82
82
C6
FA
7A
00
00
18
18
ENDCHAR
STARTCHAR 1EAE
ENCODING 7854
SWIDTH 407 0
DWIDTH 11 0
BBX 11 29 0 0
BITMAP
0300
0600
0600
0400
0000
1100
1100
1F00
0E00
0000
0E00
0E00
0E00
1A00
1B00
1B00
1B00
1B00
3100
3180
3180
3180
3F80
7F80
60C0
60C0
60C0
60C0
C060
ENDCHAR
STARTCHAR 1EAF
ENCODING 7855
SWIDTH 370 0
DWIDTH 10 0
BBX 7 25 1 0
BITMAP
0C
08
08
18
00
46
66
7C
3C
00
00
FC
FE
06
02
02
02
7E
FE
C2
82
82
C6
FA
7A
ENDCHAR
STARTCHAR 1EB0
ENCODING 7856
SWIDTH 407 0
DWIDTH 11 0
BBX 11 29 0 0
BITMAP
1800
0C00
0C00
0400
0000
1100
1100
1F00
0E00
0000
0E00
0E00
0E00
1A00
1B00
1B00
1B00
1B00
3100
3180
3180
3180
3F80
7F80
60C0
60C0
60C0
60C0
C060
ENDCHAR
STARTCHAR 1EB1
ENCODING 7857
SWIDTH 370 0
DWIDTH 10 0
BBX 7 25 1 0
BITMAP
30
30
10
18
00
46
66
7C
3C
00
00
FC
FE
06
02
02
02
7E
FE
C2
82
82
C6
FA
7A
ENDCHAR
STARTCHAR 1EB2
ENCODING 7858
SWIDTH 407 0
DWIDTH 11 0
BBX 11 30 0 0
BITMAP
0600
1F00
0100
0100
0600
0800
1100
1100
1F00
1E00
0000
0E00
0E00
0E00
1A00
1B00
1B00
1B00
1B00
3100
3180
3180
3180
3F80
7F80
60C0
60C0
60C0
60C0
C060
ENDCHAR
STARTCHAR 1EB3
ENCODING 7859
SWIDTH 370 0
DWIDTH 10 0
BBX 7 26 1 0
BITMAP
10
3C
06
04
18
00
46
46
7C
3C
00
00
FC
FE
06
02
02
02
7E
FE
C2
82
82
C6
FA
7A
ENDCHAR
STARTCHAR 1EB4
ENCODING 7860
SWIDTH 407 0
DWIDTH 11 0
BBX 11 30 0 0
BITMAP
1080
3D80
2780
2000
0000
0000
1100
1100
1F00
1E00
0000
0E00
0E00
0E00
1A00
1B00
1B00
1B00
1B00
3100
3180
3180
3180
3F80
7F80
60C0
60C0
60C0
60C0
C060
ENDCHAR
STARTCHAR 1EB5
ENCODING 7861
SWIDTH 370 0
DWIDTH 10 0
BBX 7 26 1 0
BITMAP
22
7A
4E
40
00
00
46
46
7C
3C
00
00
FC
FE
06
02
02
02
7E
FE
C2
82
82
C6
FA
7A
ENDCHAR
STARTCHAR 1EB6
ENCODING 7862
SWIDTH 407 0
DWIDTH 11 0
BBX 11 28 0 -4
BITMAP
1100
1100
1B00
0E00
0000
0E00
0E00
0E00
1A00
1B00
1B00
1B00
1B00
3100
3180
3180
3180
3F80
7F80
60C0
60C0
60C0
60C0
C060
0000
0000
0E00
0E00
ENDCHAR
STARTCHAR 1EB7
ENCODING 7863
SWIDTH 370 0
DWIDTH 10 0
BBX 7 24 1 -4
BITMAP
46
66
7C
3C
00
00
FC
FE
06
02
02
02
7E
FE
C2
82
82
C6
FA
7A
00
00
18
18
ENDCHAR
STARTCHAR 1EB8
ENCODING 7864
SWIDTH 333 0
DWIDTH 9 0
BBX 7 23 2 -4
BITMAP
FE
FE
80
80
80
80
80
80
80
FC
FC
80
80
80
80
80
80
FE
FE
00
00
30
30
ENDCHAR
STARTCHAR 1EB9
ENCODING 7865
SWIDTH 370 0
DWIDTH 10 0
BBX 8 18 1 -4
BITMAP
3C
7E
C3
C3
C3
C3
FF
FF
C0
C0
C0
C0
7F
3F
00
00
18
18
ENDCHAR
STARTCHAR 1EBA
ENCODING 7866
SWIDTH 333 0
DWIDTH 9 0
BBX 7 25 2 0
BITMAP
70
78
0C
18
20
00
FE
FE
80
80
80
80
80
80
80
FC
FC
80
80
80
80
80
80
FE
FE
ENDCHAR
STARTCHAR 1EBB
ENCODING 7867
SWIDTH 370 0
DWIDTH 10 0
BBX 8 22 1 0
BITMAP
10
7C
04
04
18
00
00
00
3C
7E
C3
C3
C3
C3
FF
FF
C0
C0
C0
C0
7F
3F
ENDCHAR
STARTCHAR 1EBC
ENCODING 7868
SWIDTH 333 0
DWIDTH 9 0
BBX 7 24 2 0
BITMAP
C4
FC
9C
00
00
FE
FE
80
80
80
80
80
80
80
FC
FC
80
80
80
80
80
80
FE
FE
ENDCHAR
STARTCHAR 1EBD
ENCODING 7869
SWIDTH 370 0
DWIDTH 10 0
BBX 8 21 1 0
BITMAP
22
7A
4E
40
00
00
00
3C
7E
C3
C3
C3
C3
FF
FF
C0
C0
C0
C0
7F
3F
ENDCHAR
STARTCHAR 1EBE
ENCODING 7870
SWIDTH 333 0
DWIDTH 9 0
BBX 7 27 2 0
BITMAP
06
06
04
0C
30
78
48
CC
FE
FE
80
80
80
80
80
80
80
FC
FC
80
80
80
80
80
80
FE
FE
ENDCHAR
STARTCHAR 1EBF
ENCODING 7871
SWIDTH 370 0
DWIDTH 10 0
BBX 8 24 1 0
BITMAP
03
03
02
06
18
38
2C
66
00
00
3C
7E
C3
C3
C3
C3
FF
FF
C0
C0
C0
C0
7F
3F
ENDCHAR
STARTCHAR 1EC0
ENCODING 7872
SWIDTH 333 0
DWIDTH 9 0
BBX 7 27 2 0
BITMAP
18
08
0C
0C
30
70
48
CC
FE
FE
80
80
80
80
80
80
80
FC
FC
80
80
80
80
80
80
FE
FE
ENDCHAR
STARTCHAR 1EC1
ENCODING 7873
SWIDTH 370 0
DWIDTH 10 0
BBX 8 24 1 0
BITMAP
0C
0C
04
06
18
38
2C
66
00
00
3C
7E
C3
C3
C3
C3
FF
FF
C0
C0
C0
C0
7F
3F
ENDCHAR
STARTCHAR 1EC2
ENCODING 7874
SWIDTH 333 0
DWIDTH 9 0
BBX 8 29 2 0
BITMAP
04
1F
01
03
0E
00
30
78
48
CC
FE
FE
80
80
80
80
80
80
80
FC
FC
80
80
80
80
80
80
FE
FE
ENDCHAR
STARTCHAR 1EC3
ENCODING 7875
SWIDTH 370 0
DWIDTH 10 0
BBX 9 26 1 0
BITMAP
0600
0F80
0180
0180
0600
0000
1800
3800
2C00
6600
0000
0000
3C00
7E00
C300
C300
C300
C300
FF00
FF00
C000
C000
C000
C000
7F00
3F00
ENDCHAR
STARTCHAR 1EC4
ENCODING 7876
SWIDTH 333 0
DWIDTH 9 0
BBX 7 29 2 0
BITMAP
44
F4
9C
80
00
00
30
78
48
CC
FE
FE
80
80
80
80
80
80
80
FC
FC
80
80
80
80
80
80
FE
FE
ENDCHAR
STARTCHAR 1EC5
ENCODING 7877
SWIDTH 370 0
DWIDTH 10 0
BBX 8 26 1 0
BITMAP
22
7A
4E
40
00
00
18
38
2C
66
00
00
3C
7E
C3
C3
C3
C3
FF
FF
C0
C0
C0
C0
7F
3F
ENDCHAR
STARTCHAR 1EC6
ENCODING 7878
SWIDTH 333 0
DWIDTH 9 0
BBX 7 28 2 -4
BITMAP
30
78
48
CC
00
FE
FE
80
80
80
80
80
80
80
FC
FC
80
80
80
80
80
80
FE
FE
00
00
30
30
ENDCHAR
STARTCHAR 1EC7
ENCODING 7879
SWIDTH 370 0
DWIDTH 10 0
BBX 8 24 1 -4
BITMAP
18
38
2C
66
00
00
3C
7E
C3
C3
C3
C3
FF
FF
C0
C0
C0
C0
7F
3F
00
00
18
18
ENDCHAR
STARTCHAR 1EC8
ENCODING 7880
SWIDTH 185 0
DWIDTH 5 0
BBX 5 25 0 0
BITMAP
F0
F8
08
38
60
00
20
20
20
20
20
20
20
20
20
20
20
20
20
20
20
20
20
20
20
ENDCHAR
STARTCHAR 1EC9
ENCODING 7881
SWIDTH 185 0
DWIDTH 5 0
BBX 5 22 0 0
BITMAP
60
F8
18
18
60
00
00
00
60
60
60
60
60
60
60
60
60
60
60
60
60
60
ENDCHAR
STARTCHAR 1ECA
ENCODING 7882
SWIDTH 185 0
DWIDTH 5 0
BBX 2 23 2 -4
BITMAP
80
80
80
80
80
80
80
80
80
80
80
80
80
80
80
80
80
80
80
00
00
C0
C0
ENDCHAR
STARTCHAR 1ECB
ENCODING 7883
SWIDTH 185 0
DWIDTH 5 0
BBX 2 24 1 -4
BITMAP
C0
C0
00
00
00
00
C0
C0
C0
C0
C0
C0
C0
C0
C0
C0
C0
C0
C0
C0
00
00
C0
C0
ENDCHAR
STARTCHAR 1ECC
ENCODING 7884
SWIDTH 407 0
DWIDTH 11 0
BBX 9 23 1 -4
BITMAP
3E00
7F00
6180
C180
C180
C180
C180
C180
C180
C180
C180
C180
C180
C180
C180
C180
6180
7F00
3F00
0000
0000
0C00
0C00
ENDCHAR
STARTCHAR 1ECD
ENCODING 7885
SWIDTH 370 0
DWIDTH 10 0
BBX 8 18 1 -4
BITMAP
3E
7F
C3
C3
C3
C3
C3
C3
C3
C3
C3
C3
7F
3E
00
00
18
18
ENDCHAR
STARTCHAR 1ECE
ENCODING 7886
SWIDTH 407 0
DWIDTH 11 0
BBX 9 25 1 0
BITMAP
3C00
3E00
0200
0E00
1800
0000
3E00
7F00
6180
C180
C180
C180
C180
C180
C180
C180
C180
C180
C180
C180
C180
C180
6180
7F00
3F00
ENDCHAR
STARTCHAR 1ECF
ENCODING 7887
SWIDTH 370 0
DWIDTH 10 0
BBX 8 22 1 0
BITMAP
10
3C
06
04
18
00
00
00
3E
7F
C3
C3
C3
C3
C3
C3
C3
C3
C3
C3
7F
3E
ENDCHAR
STARTCHAR 1ED0
ENCODING 7888
SWIDTH 407 0
DWIDTH 11 0
BBX 9 27 1 0
BITMAP
0180
0100
0300
0300
0C00
1C00
1600
3300
3E00
7F00
6180
C180
C180
C180
C180
C180
C180
C180
C180
C180
C180
C180
C180
C180
6180
7F00
3F00
ENDCHAR
STARTCHAR 1ED1
ENCODING 7889
SWIDTH 370 0
DWIDTH 10 0
BBX 8 24 1 0
BITMAP
03
03
02
06
18
1C
24
66
00
00
3E
7F
C3
C3
C3
C3
C3
C3
C3
C3
C3
C3
7F
3E
ENDCHAR
STARTCHAR 1ED2
ENCODING 7890
SWIDTH 407 0
DWIDTH 11 0
BBX 9 27 1 0
BITMAP
0600
0600
0200
0200
0C00
1C00
1600
2200
3E00
7F00
6180
C180
C180
C180
C180
C180
C180
C180
C180
C180
C180
C180
C180
C180
6180
7F00
3F00
ENDCHAR
STARTCHAR 1ED3
ENCODING 7891
SWIDTH 370 0
DWIDTH 10 0
BBX 8 24 1 0
BITMAP
0C
04
06
06
18
3C
24
66
00
00
3E
7F
C3
C3
C3
C3
C3
C3
C3
C3
C3
C3
7F
3E
ENDCHAR
STARTCHAR 1ED4
ENCODING 7892
SWIDTH 407 0
DWIDTH 11 0
BBX 10 29 1 0
BITMAP
0200
0780
00C0
0080
0300
0000
0C00
1C00
1600
3300
3E00
7F00
6180
C180
C180
C180
C180
C180
C180
C180
C180
C180
C180
C180
C180
C180
6180
7F00
3F00
ENDCHAR
STARTCHAR 1ED5
ENCODING 7893
SWIDTH 370 0
DWIDTH 10 0
BBX 9 26 1 0
BITMAP
0200
0F80
0080
0180
0700
0000
1800
1C00
2400
6600
0000
0000
3E00
7F00
C300
C300
C300
C300
C300
C300
C300
C300
C300
C300
7F00
3E00
ENDCHAR
STARTCHAR 1ED6
ENCODING 7894
SWIDTH 407 0
DWIDTH 11 0
BBX 9 29 1 0
BITMAP
2100
3D00
6F00
6000
0000
0000
0C00
1C00
1600
2200
3E00
7F00
6180
C180
C180
C180
C180
C180
C180
C180
C180
C180
C180
C180
C180
C180
6180
7F00
3F00
ENDCHAR
STARTCHAR 1ED7
ENCODING 7895
SWIDTH 370 0
DWIDTH 10 0
BBX 8 26 1 0
BITMAP
22
7A
4E
40
00
00
18
3C
24
66
00
00
3E
7F
C3
C3
C3
C3
C3
C3
C3
C3
C3
C3
7F
3E
ENDCHAR
STARTCHAR 1ED8
ENCODING 7896
SWIDTH 407 0
DWIDTH 11 0
BBX 9 28 1 -4
BITMAP
1C00
1400
3200
2300
0000
3E00
7F00
6180
C180
C180
C180
C180
C180
C180
C180
C180
C180
C180
C180
C180
C180
6180
7F00
3F00
0000
0000
0C00
0C00
ENDCHAR
STARTCHAR 1ED9
ENCODING 7897
SWIDTH 370 0
DWIDTH 10 0
BBX 8 24 1 -4
BITMAP
18
1C
24
66
00
00
3E
7F
C3
C3
C3
C3
C3
C3
C3
C3
C3
C3
7F
3E
00
00
18
18
ENDCHAR
STARTCHAR 1EDA
ENCODING 7898
SWIDTH 407 0
DWIDTH 11 0
BBX 10 24 1 0
BITMAP
0600
0400
0C40
0C40
0040
3FC0
7F00
6180
C180
C180
C180
C180
C180
C180
C180
C180
C180
C180
C180
C180
C180
6180
7F00
3E00
ENDCHAR
STARTCHAR 1EDB
ENCODING 7899
SWIDTH 370 0
DWIDTH 10 0
BBX 9 20 1 0
BITMAP
0C00
0C00
0800
1880
0080
0080
3F80
7F00
C300
C300
C300
C300
C300
C300
C300
C300
C300
C300
7F00
3E00
ENDCHAR
STARTCHAR 1EDC
ENCODING 7900
SWIDTH 407 0
DWIDTH 11 0
BBX 10 24 1 0
BITMAP
1800
1800
0840
0840
0040
3FC0
7F00
6180
C180
C180
C180
C180
C180
C180
C180
C180
C180
C180
C180
C180
C180
6180
7F00
3E00
ENDCHAR
STARTCHAR 1EDD
ENCODING 7901
SWIDTH 370 0
DWIDTH 10 0
BBX 9 20 1 0
BITMAP
3000
1000
1000
1880
0080
0080
3F80
7F00
C300
C300
C300
C300
C300
C300
C300
C300
C300
C300
7F00
3E00
ENDCHAR
STARTCHAR 1EDE
ENCODING 7902
SWIDTH 407 0
DWIDTH 11 0
BBX 10 25 1 0
BITMAP
3C00
3E00
0200
0E40
1840
0040
3FC0
7F00
6180
C180
C180
C180
C180
C180
C180
C180
C180
C180
C180
C180
C180
C180
6180
7F00
3E00
ENDCHAR
STARTCHAR 1EDF
ENCODING 7903
SWIDTH 370 0
DWIDTH 10 0
BBX 9 22 1 0
BITMAP
1000
3C00
0600
0400
1800
0080
0080
0080
3F80
7F00
C300
C300
C300
C300
C300
C300
C300
C300
C300
C300
7F00
3E00
ENDCHAR
STARTCHAR 1EE0
ENCODING 7904
SWIDTH 407 0
DWIDTH 11 0
BBX 10 24 1 0
BITMAP
3100
7F00
6640
0040
0040
3FC0
7F00
6180
C180
C180
C180
C180
C180
C180
C180
C180
C180
C180
C180
C180
C180
6180
7F00
3E00
ENDCHAR
STARTCHAR 1EE1
ENCODING 7905
SWIDTH 370 0
DWIDTH 10 0
BBX 9 21 1 0
BITMAP
2200
7A00
4E00
4000
0080
0080
0080
3F80
7F00
C300
C300
C300
C300
C300
C300
C300
C300
C300
C300
7F00
3E00
ENDCHAR
STARTCHAR 1EE2
ENCODING 7906
SWIDTH 407 0
DWIDTH 11 0
BBX 10 26 1 -4
BITMAP
0040
0040
0040
3FC0
7F00
6180
C180
C180
C180
C180
C180
C180
C180
C180
C180
C180
C180
C180
C180
6180
7F00
3E00
0000
0000
0C00
0C00
ENDCHAR
STARTCHAR 1EE3
ENCODING 7907
SWIDTH 370 0
DWIDTH 10 0
BBX 9 21 1 -4
BITMAP
0080
0080
0080
3F80
7F00
C300
C300
C300
C300
C300
C300
C300
C300
C300
C300
7F00
3E00
0000
0000
1800
1800
ENDCHAR
STARTCHAR 1EE4
ENCODING 7908
SWIDTH 407 0
DWIDTH 11 0
BBX 9 23 1 -4
BITMAP
C180
C180
C180
C180
C180
C180
C180
C180
C180
C180
C180
C180
C180
C180
C180
4180
6180
7F00
3E00
0000
0000
0C00
0C00
ENDCHAR
STARTCHAR 1EE5
ENCODING 7909
SWIDTH 370 0
DWIDTH 10 0
BBX 8 18 1 -4
BITMAP
C3
C3
C3
C3
C3
C3
C3
C3
C3
C3
C3
C3
7F
7B
00
00
18
18
ENDCHAR
STARTCHAR 1EE6
ENCODING 7910
SWIDTH 407 0
DWIDTH 11 0
BBX 9 25 1 0
BITMAP
3C00
3E00
0200
0E00
1800
0000
C180
C180
C180
C180
C180
C180
C180
C180
C180
C180
C180
C180
C180
C180
C180
4180
6180
7F00
3E00
ENDCHAR
STARTCHAR 1EE7
ENCODING 7911
SWIDTH 370 0
DWIDTH 10 0
BBX 8 22 1 0
BITMAP
08
3E
06
06
18
00
00
00
C3
C3
C3
C3
C3
C3
C3
C3
C3
C3
C3
C3
7F
7B
ENDCHAR
STARTCHAR 1EE8
ENCODING 7912
SWIDTH 407 0
DWIDTH 11 0
BBX 11 24 1 0
BITMAP
0600
0400
0C20
0C20
0020
C1E0
C180
C180
C180
C180
C180
C180
C180
C180
C180
C180
C180
C180
C180
C180
4180
6180
7F00
3E00
ENDCHAR
STARTCHAR 1EE9
ENCODING 7913
SWIDTH 370 0
DWIDTH 10 0
BBX 10 20 1 0
BITMAP
0C00
0C00
0800
1840
0040
0040
C3C0
C300
C300
C300
C300
C300
C300
C300
C300
C300
C300
C300
7F00
7B00
ENDCHAR
STARTCHAR 1EEA
ENCODING 7914
SWIDTH 407 0
DWIDTH 11 0
BBX 11 24 1 0
BITMAP
1800
1800
0820
0820
0020
C1E0
C180
C180
C180
C180
C180
C180
C180
C180
C180
C180
C180
C180
C180
C180
4180
6180
7F00
3E00
ENDCHAR
STARTCHAR 1EEB
ENCODING 7915
SWIDTH 370 0
DWIDTH 10 0
BBX 10 20 1 0
BITMAP
3000
1000
1800
1840
0040
0040
C3C0
C300
C300
C300
C300
C300
C300
C300
C300
C300
C300
C300
7F00
7B00
ENDCHAR
STARTCHAR 1EEC
ENCODING 7916
SWIDTH 407 0
DWIDTH 11 0
BBX 11 25 1 0
BITMAP
3C00
3E00
0200
0E20
1820
0020
C1E0
C180
C180
C180
C180
C180
C180
C180
C180
C180
C180
C180
C180
C180
C180
4180
6180
7F00
3E00
ENDCHAR
STARTCHAR 1EED
ENCODING 7917
SWIDTH 370 0
DWIDTH 10 0
BBX 10 22 1 0
BITMAP
0800
3E00
0600
0600
1800
0040
0040
0040
C3C0
C300
C300
C300
C300
C300
C300
C300
C300
C300
C300
C300
7F00
7B00
ENDCHAR
STARTCHAR 1EEE
ENCODING 7918
SWIDTH 407 0
DWIDTH 11 0
BBX 11 24 1 0
BITMAP
3100
7F00
6620
0020
0020
C1E0
C180
C180
C180
C180
C180
C180
C180
C180
C180
C180
C180
C180
C180
C180
4180
6180
7F00
3E00
ENDCHAR
STARTCHAR 1EEF
ENCODING 7919
SWIDTH 370 0
DWIDTH 10 0
BBX 10 21 1 0
BITMAP
2300
7A00
4E00
4000
0040
0040
0040
C3C0
C300
C300
C300
C300
C300
C300
C300
C300
C300
C300
C300
7F00
7B00
ENDCHAR
STARTCHAR 1EF0
ENCODING 7920
SWIDTH 407 0
DWIDTH 11 0
BBX 11 26 1 -4
BITMAP
0020
0020
0020
C1E0
C180
C180
C180
C180
C180
C180
C180
C180
C180
C180
C180
C180
C180
C180
4180
6180
7F00
3E00
0000
0000
0C00
0C00
ENDCHAR
STARTCHAR 1EF1
ENCODING 7921
SWIDTH 370 0
DWIDTH 10 0
BBX 10 21 1 -4
BITMAP
0040
0040
0040
C3C0
C300
C300
C300
C300
C300
C300
C300
C300
C300
C300
C300
7F00
7B00
0000
0000
1800
1800
ENDCHAR
STARTCHAR 1EF2
ENCODING 7922
SWIDTH 370 0
DWIDTH 10 0
BBX 10 24 0 0
BITMAP
1800
1800
0800
0C00
0000
C0C0
C180
6180
6100
6300
3300
3200
3600
1600
1C00
1C00
0C00
0C00
0C00
0C00
0C00
0C00
0C00
0C00
ENDCHAR
STARTCHAR 1EF3
ENCODING 7923
SWIDTH 370 0
DWIDTH 10 0
BBX 8 25 1 -5
BITMAP
30
10
18
18
00
00
C3
C3
C3
C3
C3
C3
C3
C3
C3
C3
C3
C3
7F
7B
03
03
03
7E
7C
ENDCHAR
STARTCHAR 1EF4
ENCODING 7924
SWIDTH 370 0
DWIDTH 10 0
BBX 10 23 0 -4
BITMAP
C0C0
C180
6180
6100
6300
3300
3200
3600
1600
1C00
1C00
0C00
0C00
0C00
0C00
0C00
0C00
0C00
0C00
0000
0000
0C00
0C00
ENDCHAR
STARTCHAR 1EF5
ENCODING 7925
SWIDTH 370 0
DWIDTH 10 0
BBX 8 23 1 -9
BITMAP
C3
C3
C3
C3
C3
C3
C3
C3
C3
C3
C3
C3
7F
7B
03
03
03
7E
7C
00
00
18
18
ENDCHAR
STARTCHAR 1EF6
ENCODING 7926
SWIDTH 370 0
DWIDTH 10 0
BBX 10 25 0 0
BITMAP
3C00
3E00
0200
0E00
0800
0000
C0C0
C180
6180
6100
6300
3300
3200
3600
1600
1C00
1C00
0C00
0C00
0C00
0C00
0C00
0C00
0C00
0C00
ENDCHAR
STARTCHAR 1EF7
ENCODING 7927
SWIDTH 370 0
DWIDTH 10 0
BBX 8 27 1 -5
BITMAP
08
3E
06
06
18
00
00
00
C3
C3
C3
C3
C3
C3
C3
C3
C3
C3
C3
C3
7F
7B
03
03
03
7E
7C
ENDCHAR
STARTCHAR 1EF8
ENCODING 7928
SWIDTH 370 0
DWIDTH 10 0
BBX 10 24 0 0
BITMAP
3100
3F00
6700
0000
0000
C0C0
C180
6180
6100
6300
3300
3200
3600
1600
1C00
1C00
0C00
0C00
0C00
0C00
0C00
0C00
0C00
0C00
ENDCHAR
STARTCHAR 1EF9
ENCODING 7929
SWIDTH 370 0
DWIDTH 10 0
BBX 8 26 1 -5
BITMAP
23
7A
4E
40
00
00
00
C3
C3
C3
C3
C3
C3
C3
C3
C3
C3
C3
C3
7F
7B
03
03
03
7E
7C
ENDCHAR
STARTCHAR 2002
ENCODING 8194
SWIDTH 296 0
DWIDTH 8 0
BBX 0 0 0 0
BITMAP
ENDCHAR
STARTCHAR 2013
ENCODING 8211
SWIDTH 407 0
DWIDTH 11 0
BBX 9 2 1 7
BITMAP
FF80
FF80
ENDCHAR
STARTCHAR 2014
ENCODING 8212
SWIDTH 814 0
DWIDTH 22 0
BBX 19 2 1 7
BITMAP
FFFFE0
FFFFE0
ENDCHAR
STARTCHAR 2017
ENCODING 8215
SWIDTH 296 0
DWIDTH 8 0
BBX 8 4 0 -7
BITMAP
FF
FF
FF
FF
ENDCHAR
STARTCHAR 2018
ENCODING 8216
SWIDTH 148 0
DWIDTH 4 0
BBX 2 6 1 13
BITMAP
40
C0
80
80
C0
C0
ENDCHAR
STARTCHAR 2019
ENCODING 8217
SWIDTH 148 0
DWIDTH 4 0
BBX 2 7 1 12
BITMAP
C0
C0
40
40
40
C0
80
ENDCHAR
STARTCHAR 201A
ENCODING 8218
SWIDTH 185 0
DWIDTH 5 0
BBX 2 6 1 -4
BITMAP
C0
C0
40
40
C0
80
ENDCHAR
STARTCHAR 201C
ENCODING 8220
SWIDTH 296 0
DWIDTH 8 0
BBX 6 6 1 13
BITMAP
4C
CC
98
98
D8
D8
ENDCHAR
STARTCHAR 201D
ENCODING 8221
SWIDTH 296 0
DWIDTH 8 0
BBX 6 7 1 12
BITMAP
CC
CC
4C
4C
4C
D8
90
ENDCHAR
STARTCHAR 201E
ENCODING 8222
SWIDTH 296 0
DWIDTH 8 0
BBX 6 6 1 -4
BITMAP
CC
CC
44
4C
DC
90
ENDCHAR
STARTCHAR 2020
ENCODING 8224
SWIDTH 296 0
DWIDTH 8 0
BBX 6 19 1 0
BITMAP
30
30
30
30
30
FC
FC
30
30
30
30
30
30
30
30
30
30
30
30
ENDCHAR
STARTCHAR 2021
ENCODING 8225
SWIDTH 296 0
DWIDTH 8 0
BBX 6 19 1 0
BITMAP
30
30
30
30
30
FC
FC
30
30
30
30
30
30
FC
30
30
30
30
30
ENDCHAR
STARTCHAR 2022
ENCODING 8226
SWIDTH 259 0
DWIDTH 7 0
BBX 5 4 1 7
BITMAP
F0
F8
F8
F0
ENDCHAR
STARTCHAR 2026
ENCODING 8230
SWIDTH 518 0
DWIDTH 14 0
BBX 12 2 1 0
BITMAP
C630
C630
ENDCHAR
STARTCHAR 2030
ENCODING 8240
SWIDTH 703 0
DWIDTH 19 0
BBX 16 19 1 0
BITMAP
7040
F880
C880
C980
C900
C900
CA00
DA00
7E00
2400
05CF
0969
0B29
1B29
1329
1329
2329
21EF
61CF
ENDCHAR
STARTCHAR 2032
ENCODING 8242
SWIDTH 148 0
DWIDTH 4 0
BBX 2 8 1 11
BITMAP
C0
C0
C0
C0
C0
C0
80
80
ENDCHAR
STARTCHAR 2033
ENCODING 8243
SWIDTH 259 0
DWIDTH 7 0
BBX 5 8 1 11
BITMAP
D8
D8
D8
D8
D8
D8
90
90
ENDCHAR
STARTCHAR 2039
ENCODING 8249
SWIDTH 185 0
DWIDTH 5 0
BBX 3 11 1 3
BITMAP
20
60
40
40
C0
C0
C0
C0
40
60
20
ENDCHAR
STARTCHAR 203A
ENCODING 8250
SWIDTH 185 0
DWIDTH 5 0
BBX 4 11 1 3
BITMAP
C0
40
60
60
20
30
20
60
60
40
C0
ENDCHAR
STARTCHAR 203C
ENCODING 8252
SWIDTH 333 0
DWIDTH 9 0
BBX 7 19 1 0
BITMAP
E6
E6
E6
E6
E6
E6
46
46
46
46
46
46
46
46
00
00
00
E6
E6
ENDCHAR
STARTCHAR 2044
ENCODING 8260
SWIDTH 111 0
DWIDTH 3 0
BBX 9 19 -3 0
BITMAP
0080
0100
0100
0300
0200
0200
0400
0400
0C00
0800
0800
1000
1000
3000
2000
2000
4000
4000
C000
ENDCHAR
STARTCHAR 20AC
ENCODING 8364
SWIDTH 370 0
DWIDTH 10 0
BBX 8 19 1 0
BITMAP
1F
3F
30
60
60
60
FE
FE
60
60
60
FE
FE
60
60
60
30
3F
1F
ENDCHAR
STARTCHAR 20B2
ENCODING 8370
SWIDTH 407 0
DWIDTH 11 0
BBX 9 19 1 0
BITMAP
0C00
0C00
1E00
7F80
6000
C000
C000
C000
C000
C780
C780
C180
C180
C180
6180
7F00
0C00
0C00
0C00
ENDCHAR
STARTCHAR 2113
ENCODING 8467
SWIDTH 296 0
DWIDTH 8 0
BBX 7 19 0 0
BITMAP
0C
1E
36
32
32
26
26
26
24
2C
38
38
E0
E0
20
30
30
3E
1E
ENDCHAR
STARTCHAR 2116
ENCODING 8470
SWIDTH 666 0
DWIDTH 18 0
BBX 15 19 2 0
BITMAP
831C
C336
C326
E322
E322
A326
B326
B33E
9300
9B00
9B00
8B3E
8F3E
8F00
8700
8700
8700
8300
8300
ENDCHAR
STARTCHAR 2122
ENCODING 8482
SWIDTH 481 0
DWIDTH 13 0
BBX 10 9 1 10
BITMAP
F440
44C0
44C0
46C0
46C0
46C0
4740
4540
4540
ENDCHAR
STARTCHAR 2126
ENCODING 8486
SWIDTH 444 0
DWIDTH 12 0
BBX 9 19 1 0
BITMAP
1E00
7F00
6180
4180
C180
C080
C080
C080
C080
C080
C080
C080
C080
C180
4180
4180
6100
B680
F780
ENDCHAR
STARTCHAR 212E
ENCODING 8494
SWIDTH 407 0
DWIDTH 11 0
BBX 9 19 1 0
BITMAP
3E00
6300
4180
C180
C180
C180
C180
C180
C180
FF80
C000
C000
C000
C000
C080
C080
4080
6180
3F00
ENDCHAR
STARTCHAR 2153
ENCODING 8531
SWIDTH 518 0
DWIDTH 14 0
BBX 12 19 1 0
BITMAP
6080
E080
E100
6100
6300
6200
6200
6400
6400
6DE0
0830
0830
1030
10E0
30E0
2030
2030
41F0
41E0
ENDCHAR
STARTCHAR 2154
ENCODING 8532
SWIDTH 555 0
DWIDTH 15 0
BBX 13 19 1 0
BITMAP
F060
F840
1840
1880
1880
3180
4100
C100
C200
FAF0
FE18
0418
0418
0870
0878
1808
1008
10F8
20F0
ENDCHAR
STARTCHAR 215B
ENCODING 8539
SWIDTH 518 0
DWIDTH 14 0
BBX 12 19 1 0
BITMAP
6080
E080
6100
6100
6300
6200
6200
6400
6400
6CE0
0910
0910
1110
11E0
31F0
2110
2110
41F0
40E0
ENDCHAR
STARTCHAR 215C
ENCODING 8540
SWIDTH 555 0
DWIDTH 15 0
BBX 15 19 0 0
BITMAP
7030
F820
0860
0840
1840
7080
1880
0980
0900
193C
F326
0266
0626
043C
0426
0C62
0862
1826
103C
ENDCHAR
STARTCHAR 215D
ENCODING 8541
SWIDTH 592 0
DWIDTH 16 0
BBX 14 19 1 0
BITMAP
F020
F040
8040
80C0
8080
F080
1100
1900
1300
127C
E244
0444
0444
0C38
086C
0844
1044
1044
307C
ENDCHAR
STARTCHAR 215E
ENCODING 8542
SWIDTH 518 0
DWIDTH 14 0
BBX 14 19 0 0
BITMAP
F860
F840
18C0
1880
1080
1100
3100
2300
2200
6278
64CC
04CC
0CCC
0878
0848
10CC
10CC
30CC
2078
ENDCHAR
STARTCHAR 2190
ENCODING 8592
SWIDTH 888 0
DWIDTH 24 0
BBX 21 6 1 5
BITMAP
060000
1E0000
FFFFF8
3FFFF8
0E0000
020000
ENDCHAR
STARTCHAR 2191
ENCODING 8593
SWIDTH 407 0
DWIDTH 11 0
BBX 7 21 2 -2
BITMAP
10
10
30
38
78
7C
DC
12
10
10
10
10
10
10
10
10
10
10
10
10
10
ENDCHAR
STARTCHAR 2192
ENCODING 8594
SWIDTH 888 0
DWIDTH 24 0
BBX 21 6 1 5
BITMAP
000300
0001E0
FFFFF8
FFFFF0
0001C0
000200
ENDCHAR
STARTCHAR 2193
ENCODING 8595
SWIDTH 407 0
DWIDTH 11 0
BBX 7 21 2 -2
BITMAP
10
10
10
10
10
10
10
10
10
10
10
10
10
10
92
7C
7C
38
38
10
10
ENDCHAR
STARTCHAR 2194
ENCODING 8596
SWIDTH 888 0
DWIDTH 24 0
BBX 21 6 1 5
BITMAP
070300
1E01E0
FFFFF8
3FFFF0
0E01C0
030200
ENDCHAR
STARTCHAR 2195
ENCODING 8597
SWIDTH 407 0
DWIDTH 11 0
BBX 7 21 2 -2
BITMAP
10
10
30
38
78
7C
D4
12
10
10
10
10
10
10
92
7C
7C
38
38
10
10
ENDCHAR
STARTCHAR 21A8
ENCODING 8616
SWIDTH 407 0
DWIDTH 11 0
BBX 8 24 1 -5
BITMAP
08
08
18
1C
3C
3E
6A
09
08
08
08
08
08
08
49
3E
3E
1C
1C
08
08
00
FF
FF
ENDCHAR
STARTCHAR 2202
ENCODING 8706
SWIDTH 370 0
DWIDTH 10 0
BBX 8 20 1 0
BITMAP
18
0C
04
06
06
02
7B
7F
C3
C3
C3
C3
C3
C3
C3
C3
C3
C3
E7
7E
ENDCHAR
STARTCHAR 2206
ENCODING 8710
SWIDTH 407 0
DWIDTH 11 0
BBX 11 19 0 0
BITMAP
0E00
0E00
0E00
0A00
1B00
1B00
1B00
1B00
1100
3180
3180
3180
3180
2080
60C0
60C0
60C0
7FC0
FFE0
ENDCHAR
STARTCHAR 220F
ENCODING 8719
SWIDTH 444 0
DWIDTH 12 0
BBX 8 24 2 -5
BITMAP
FF
FF
83
83
83
83
83
83
83
83
83
83
83
83
83
83
83
83
83
83
83
83
83
83
ENDCHAR
STARTCHAR 2211
ENCODING 8721
SWIDTH 444 0
DWIDTH 12 0
BBX 8 24 2 -5
BITMAP
FF
FF
C0
C0
60
60
30
30
18
18
1C
0C
0C
0C
18
18
30
30
60
60
E0
C0
FF
FF
ENDCHAR
STARTCHAR 2212
ENCODING 8722
SWIDTH 444 0
DWIDTH 12 0
BBX 9 2 2 6
BITMAP
FF80
FF80
ENDCHAR
STARTCHAR 221A
ENCODING 8730
SWIDTH 444 0
DWIDTH 12 0
BBX 11 24 0 -3
BITMAP
0060
0060
0040
00C0
00C0
00C0
00C0
00C0
00C0
0080
0180
0180
2180
F180
7180
3100
3100
1B00
1B00
1B00
0B00
0F00
0E00
0E00
ENDCHAR
STARTCHAR 221E
ENCODING 8734
SWIDTH 666 0
DWIDTH 18 0
BBX 16 12 1 1
BITMAP
0808
7E3E
6246
C3C3
C183
C183
C183
C183
C1C3
6342
7E7E
1818
ENDCHAR
STARTCHAR 222B
ENCODING 8747
SWIDTH 296 0
DWIDTH 8 0
BBX 6 24 1 -5
BITMAP
1C
3C
30
30
30
30
30
30
30
30
30
30
30
30
30
30
30
30
30
30
30
10
30
F0
ENDCHAR
STARTCHAR 2248
ENCODING 8776
SWIDTH 407 0
DWIDTH 11 0
BBX 8 8 2 3
BITMAP
01
FB
9E
80
00
E3
FF
86
ENDCHAR
STARTCHAR 2260
ENCODING 8800
SWIDTH 444 0
DWIDTH 12 0
BBX 9 12 2 1
BITMAP
0300
0200
0600
FF80
FF80
0800
1800
1000
FF80
2000
6000
C000
ENDCHAR
STARTCHAR 2264
ENCODING 8804
SWIDTH 444 0
DWIDTH 12 0
BBX 9 14 2 1
BITMAP
0080
0380
1E00
7800
E000
E000
7800
1E00
0380
0080
0000
0000
FF80
FF80
ENDCHAR
STARTCHAR 2265
ENCODING 8805
SWIDTH 444 0
DWIDTH 12 0
BBX 9 14 2 1
BITMAP
8000
E000
7800
1E00
0380
0380
1E00
7800
E000
8000
0000
0000
FF80
FF80
ENDCHAR
STARTCHAR 2302
ENCODING 8962
SWIDTH 444 0
DWIDTH 12 0
BBX 10 19 1 0
BITMAP
0C00
1C00
1E00
3600
3300
6300
6180
C180
C0C0
80C0
80C0
80C0
80C0
80C0
80C0
80C0
80C0
FFC0
FFC0
ENDCHAR
STARTCHAR 25CA
ENCODING 9674
SWIDTH 407 0
DWIDTH 11 0
BBX 9 19 1 0
BITMAP
1800
1C00
1C00
3400
2600
2600
6200
4300
C300
C180
C100
4300
6300
6200
2600
3400
3400
1C00
1800
ENDCHAR
STARTCHAR A78B
ENCODING 42891
SWIDTH 111 0
DWIDTH 3 0
BBX 1 11 1 8
BITMAP
80
80
80
80
80
80
80
80
80
80
80
ENDCHAR
STARTCHAR A78C
ENCODING 42892
SWIDTH 111 0
DWIDTH 3 0
BBX 1 12 1 8
BITMAP
80
80
80
80
80
80
80
80
80
80
80
80
ENDCHAR
STARTCHAR F8FF
ENCODING 63743
SWIDTH 851 0
DWIDTH 23 0
BBX 19 19 2 0
BITMAP
FFFFE0
FFFFE0
FFFFE0
FFFFE0
FC0FE0
F803E0
F843E0
F0E1E0
F0E1E0
F0E1E0
F0E1E0
F0E1E0
F043E0
F803E0
FC07E0
FFFFE0
FFFFE0
FFFFE0
FFFFE0
ENDCHAR
STARTCHAR FB01
ENCODING 64257
SWIDTH 407 0
DWIDTH 11 0
BBX 10 20 0 0
BITMAP
1CC0
3CC0
3000
3000
3000
3000
FCC0
FCC0
30C0
30C0
30C0
30C0
30C0
30C0
30C0
30C0
30C0
30C0
30C0
30C0
ENDCHAR
STARTCHAR FB02
ENCODING 64258
SWIDTH 407 0
DWIDTH 11 0
BBX 10 20 0 0
BITMAP
1CC0
3CC0
30C0
30C0
30C0
30C0
FCC0
FCC0
30C0
30C0
30C0
30C0
30C0
30C0
30C0
30C0
30C0
30C0
30C0
30C0
ENDCHAR
ENDFONT
